<?xml version="1.0" encoding="utf-8"?>
<!-- Generator: Adobe Illustrator 22.0.0, SVG Export Plug-In . SVG Version: 6.00 Build 0)  -->
<svg version="1.1" id="Layer_1" xmlns="http://www.w3.org/2000/svg" xmlns:xlink="http://www.w3.org/1999/xlink" x="0px" y="0px"
	 viewBox="0 0 101.6 90.9" style="enable-background:new 0 0 101.6 90.9;" xml:space="preserve">
<style type="text/css">
	.st0{fill:#FF8300;}
	.st1{fill:#3A8DDE;}
</style>
<g>
	<g>
		<path class="st0" d="M50.8,90.9c-8.3,0-16.3-4.1-21.1-11.6L3.8,38C-3.5,26.4,0,11.1,11.6,3.8C23.2-3.5,38.5,0,45.8,11.6l29.9,47.7
			c7.3,11.6-0.9,11-10.3,23.9C62.5,87.1,55.3,90.9,50.8,90.9z"/>
	</g>
	<g>
		<path class="st1" d="M50.8,90.9c-4.5,0-9.1-1.2-13.2-3.8C26,79.8,22.5,64.5,29.8,52.9l25.9-41.3C63,0,78.4-3.5,90,3.8
			c11.6,7.3,15.1,22.6,7.8,34.2L71.8,79.3C67.1,86.8,59.1,90.9,50.8,90.9z M76.8,8.2c-5.5,0-10.9,2.7-14.1,7.8L36.8,57.3
			c-4.9,7.7-2.5,18,5.2,22.9c3.7,2.3,8.2,3.1,12.5,2.1c4.3-1,8-3.6,10.4-7.3l25.9-41.3c4.9-7.7,2.5-18-5.2-22.9
			C82.9,9.1,79.8,8.2,76.8,8.2z"/>
	</g>
	<path class="st1" d="M57.8,87.7c-3.8,1.8-22-4-24.9-7.8c-2.9-3.7-1.4-25.4-0.5-28.2c0.8-2.7,22.4-25.8,22.4-25.8l24.9,35.7
		C79.7,61.7,61.6,85.9,57.8,87.7z"/>
</g>
</svg>
