<?xml version="1.0" encoding="UTF-8" standalone="no"?><!DOCTYPE svg PUBLIC "-//W3C//DTD SVG 1.1//EN" "http://www.w3.org/Graphics/SVG/1.1/DTD/svg11.dtd"><svg width="100%" height="100%" viewBox="0 0 148 148" version="1.1" xmlns="http://www.w3.org/2000/svg" xmlns:xlink="http://www.w3.org/1999/xlink" xml:space="preserve" xmlns:serif="http://www.serif.com/" style="fill-rule:evenodd;clip-rule:evenodd;stroke-miterlimit:10;"><path d="M74,6.9l8.6,-6.9l6.8,8.7l9.9,-4.7l4.6,10l10.8,-2.3l2.1,10.8l11.1,0.2l-0.4,11.1l10.7,2.7l-3,10.7l9.8,5.1l-5.3,9.7l8.3,7.3l-7.4,8.2l6.4,9l-9.1,6.2l4.1,10.3l-10.3,4l1.7,10.9l-10.9,1.5l-0.9,11l-11,-1.1l-3.4,10.5l-10.4,-3.5l-5.7,9.4l-9.4,-5.9l-7.7,7.9l-7.8,-7.9l-9.3,5.9l-5.7,-9.4l-10.5,3.5l-3.4,-10.5l-11,1.1l-0.8,-11l-11,-1.5l1.7,-10.9l-10.3,-4l4.2,-10.3l-9.1,-6.2l6.4,-9l-7.4,-8.2l8.3,-7.3l-5.3,-9.7l9.7,-5.1l-2.9,-10.7l10.7,-2.7l-0.4,-11.1l11,-0.2l2.2,-10.8l10.7,2.3l4.6,-10l10,4.7l6.8,-8.7l8.6,6.9Z" style="fill:#ff8300;fill-rule:nonzero;"/><path d="M8.1,73.9c0,-36.4 29.5,-65.9 65.9,-65.9c36.4,0 65.9,29.5 65.9,65.9c0,36.4 -29.5,65.9 -65.9,65.9c-36.4,-0.1 -65.9,-29.6 -65.9,-65.9" style="fill:#ff8300;fill-rule:nonzero;"/><g><g><g><path d="M32.4,70.3c-0.5,0.4 -1.2,0.7 -2.2,0.7c-1,0 -1.7,-0.3 -2.2,-0.7c-0.5,-0.5 -0.7,-1.2 -0.7,-2.4l1.8,0c0,0.6 0.1,1 0.3,1.3c0.2,0.2 0.4,0.3 0.8,0.3c0.4,0 0.7,-0.1 0.9,-0.3c0.2,-0.3 0.3,-0.6 0.3,-1.3c0,-1.2 -0.2,-1.5 -1.1,-1.9l-1.3,-0.6c-1.1,-0.5 -1.6,-1.1 -1.6,-2.8c0,-1 0.3,-1.8 0.9,-2.4c0.5,-0.4 1.1,-0.7 1.9,-0.7c0.9,0 1.6,0.2 2,0.7c0.6,0.6 0.8,1.4 0.8,2.5l-1.8,0c0,-0.5 0,-0.9 -0.3,-1.2c-0.2,-0.2 -0.4,-0.3 -0.8,-0.3c-0.4,0 -0.6,0.1 -0.8,0.3c-0.2,0.2 -0.3,0.6 -0.3,1.1c0,0.9 0.1,1.2 0.9,1.5l1.3,0.5c1.3,0.6 1.7,1.3 1.7,3.2c0.2,1.1 0,1.9 -0.5,2.5Z" style="fill:#fff;fill-rule:nonzero;"/><path d="M35.7,70.4c-0.5,-0.4 -0.8,-1 -0.8,-2l0,-4.5l-0.9,0l0,-1.3l0.9,0l0,-2.1l1.7,0l0,2.1l1.1,0l0,1.3l-1.2,0l0,4.4c0,0.8 0.4,1.1 1.2,1.1l0,1.5c-0.8,0 -1.4,-0.1 -2,-0.5Z" style="fill:#fff;fill-rule:nonzero;"/><path d="M42,70.9l0,-0.7c-0.1,0.2 -0.3,0.4 -0.5,0.6c-0.3,0.2 -0.5,0.3 -1,0.3c-0.7,0 -1.1,-0.2 -1.6,-0.7c-0.3,-0.4 -0.5,-1 -0.5,-1.9c0,-0.8 0.3,-1.4 0.8,-1.9c0.4,-0.4 1,-0.6 1.9,-0.6l0.7,0l0,-1.2c0,-0.6 -0.3,-1 -0.8,-1c-0.3,0 -0.4,0.1 -0.6,0.2c-0.2,0.2 -0.3,0.4 -0.3,0.8l-1.7,0c0,-0.7 0.2,-1.3 0.7,-1.8c0.4,-0.4 1.1,-0.7 1.8,-0.7c0.7,0 1.3,0.2 1.8,0.6c0.4,0.4 0.7,1.1 0.7,2l0,5.9l-1.4,0l0,0.1Zm-0.1,-3.7l-0.6,0c-0.4,0 -0.6,0 -0.9,0.3c-0.2,0.2 -0.3,0.6 -0.3,0.9c0,0.7 0.3,1.2 0.9,1.2c0.5,0 0.9,-0.4 0.9,-1.1l0,-1.3Z" style="fill:#fff;fill-rule:nonzero;"/><path d="M46.4,70.4c-0.5,-0.4 -0.8,-1 -0.8,-2l0,-4.5l-0.9,0l0,-1.3l0.9,0l0,-2.1l1.7,0l0,2.1l1.2,0l0,1.3l-1.2,0l0,4.4c0,0.8 0.4,1.1 1.2,1.1l0,1.5c-0.9,0 -1.6,-0.1 -2.1,-0.5Z" style="fill:#fff;fill-rule:nonzero;"/><path d="M51,67.2c0,1 0,1.7 0.3,2c0.1,0.2 0.3,0.3 0.7,0.3c0.3,0 0.5,-0.1 0.6,-0.3c0.1,-0.2 0.2,-0.5 0.2,-0.7l1.7,0c0,0.7 -0.2,1.4 -0.7,1.9c-0.4,0.5 -1.1,0.7 -1.8,0.7c-0.8,0 -1.3,-0.2 -1.8,-0.7c-0.7,-0.7 -0.8,-2.1 -0.8,-3.6c0,-1.5 0.1,-2.9 0.8,-3.6c0.5,-0.5 1.1,-0.7 1.8,-0.7c0.7,0 1.3,0.1 1.8,0.7c0.8,0.9 0.7,2.6 0.8,4.1l-3.6,0l0,-0.1Zm1.5,-2.9c-0.1,-0.2 -0.3,-0.3 -0.6,-0.3c-0.3,0 -0.5,0.1 -0.6,0.3c-0.2,0.2 -0.3,0.9 -0.3,1.7l1.8,0c-0.1,-0.9 -0.1,-1.5 -0.3,-1.7Z" style="fill:#fff;fill-rule:nonzero;"/></g><g><path d="M62.3,67.1l0,2.1l-1.6,0l0,-2.1l-2.1,0l0,-1.6l2.1,0l0,-2.1l1.6,0l0,2.1l2.1,0l0,1.6l-2.1,0Z" style="fill:#fff;fill-rule:nonzero;"/><path d="M73.9,69.9c-0.5,0.5 -1.1,0.9 -2.2,0.9l-2.9,0l0,-11.2l2.9,0c1.1,0 1.7,0.4 2.2,0.9c0.8,0.9 0.8,2.5 0.8,4.7c0.1,2.2 0.1,3.8 -0.8,4.7Zm-1.3,-8.3c-0.2,-0.3 -0.5,-0.5 -0.9,-0.5l-1,0l0,8.1l1,0c0.4,0 0.7,-0.2 0.9,-0.5c0.3,-0.5 0.4,-1.6 0.4,-3.6c0,-1.9 -0.1,-3 -0.4,-3.5Z" style="fill:#fff;fill-rule:nonzero;"/><path d="M76.4,70.8l0,-11.2l4.7,0l0,1.6l-3,0l0,3.2l2.6,0l0,1.6l-2.6,0l0,3.2l3,0l0,1.6l-4.7,0Z" style="fill:#fff;fill-rule:nonzero;"/><path d="M87.2,70.8l-0.5,-2.2l-2.6,0l-0.4,2.2l-1.9,0l2.8,-11.3l1.7,0l2.7,11.3l-1.8,0Zm-1.8,-8.5l-1,4.7l1.9,0l-0.9,-4.7Z" style="fill:#fff;fill-rule:nonzero;"/><g><path d="M27.3,86.6l0,-11.2l1.8,0l0,9.6l3,0l0,1.6l-4.8,0Z" style="fill:#fff;fill-rule:nonzero;"/><path d="M33.1,77.2l0,-1.9l1.9,0l0,1.9l-1.9,0Zm0.1,9.4l0,-8.1l1.7,0l0,8.1l-1.7,0Z" style="fill:#fff;fill-rule:nonzero;"/><path d="M40.7,86.1c-0.4,0.4 -1,0.6 -1.8,0.6c-0.8,0 -1.5,-0.2 -2,-0.9c-0.5,-0.7 -0.6,-2 -0.6,-3.4c0,-1.4 0.1,-2.7 0.6,-3.4c0.5,-0.7 1.2,-0.9 2,-0.9c0.7,0 1.3,0.1 1.8,0.6c0.5,0.5 0.7,1.3 0.7,2l-1.7,0c0,-0.3 0,-0.6 -0.2,-0.8c-0.1,-0.2 -0.3,-0.3 -0.6,-0.3c-0.3,0 -0.5,0.1 -0.6,0.3c-0.2,0.4 -0.2,1.2 -0.2,2.5c0,1.3 0,2.1 0.2,2.5c0.1,0.2 0.4,0.3 0.6,0.3c0.3,0 0.5,-0.1 0.6,-0.3c0.2,-0.2 0.2,-0.5 0.2,-0.8l1.7,0c-0.1,0.9 -0.3,1.6 -0.7,2Z" style="fill:#fff;fill-rule:nonzero;"/><path d="M44.1,82.9c0,1 0,1.7 0.3,2c0.1,0.2 0.3,0.3 0.7,0.3c0.3,0 0.5,-0.1 0.6,-0.3c0.1,-0.2 0.2,-0.5 0.2,-0.7l1.7,0c0,0.7 -0.2,1.4 -0.7,1.9c-0.4,0.5 -1.1,0.7 -1.8,0.7c-0.8,0 -1.3,-0.2 -1.8,-0.7c-0.8,-0.7 -0.9,-2.1 -0.9,-3.6c0,-1.5 0.1,-2.9 0.8,-3.6c0.5,-0.5 1.1,-0.7 1.8,-0.7c0.7,0 1.3,0.1 1.8,0.7c0.8,0.9 0.7,2.6 0.8,4.1l-3.5,0l0,-0.1Zm1.5,-2.9c-0.1,-0.2 -0.3,-0.3 -0.6,-0.3c-0.3,0 -0.5,0.1 -0.6,0.3c-0.2,0.2 -0.3,0.9 -0.3,1.7l1.8,0c-0.1,-0.8 -0.1,-1.5 -0.3,-1.7Z" style="fill:#fff;fill-rule:nonzero;"/><path d="M52.2,86.6l0,-6c0,-0.7 -0.4,-1 -0.8,-1c-0.5,0 -0.8,0.3 -0.8,1l0,6l-1.7,0l0,-8.4l1.6,0l0,0.6c0.1,-0.2 0.3,-0.4 0.6,-0.5c0.2,-0.1 0.5,-0.2 0.8,-0.2c0.7,0 1.1,0.2 1.5,0.7c0.3,0.4 0.5,0.8 0.5,1.8l0,6l-1.7,0Z" style="fill:#fff;fill-rule:nonzero;"/><path d="M59.5,86.1c-0.5,0.5 -1.1,0.7 -1.8,0.7c-0.7,0 -1.4,-0.2 -1.8,-0.7c-0.5,-0.5 -0.7,-1.1 -0.7,-1.9l1.7,0c0,0.3 0.1,0.6 0.3,0.8c0.2,0.2 0.4,0.3 0.6,0.3c0.3,0 0.5,-0.1 0.7,-0.2c0.2,-0.1 0.2,-0.4 0.2,-0.7c0,-0.2 0,-0.4 -0.2,-0.6c-0.2,-0.2 -0.3,-0.3 -0.6,-0.5l-1.1,-0.5c-0.6,-0.3 -1,-0.6 -1.2,-1c-0.2,-0.3 -0.3,-0.7 -0.3,-1.1c0,-0.8 0.3,-1.3 0.7,-1.8c0.5,-0.5 1.1,-0.7 1.8,-0.7c0.7,0 1.3,0.2 1.8,0.6c0.4,0.4 0.7,1 0.7,1.9l-1.6,0c0,-0.4 -0.1,-0.6 -0.2,-0.8c-0.2,-0.2 -0.4,-0.3 -0.6,-0.3c-0.3,0 -0.5,0.1 -0.6,0.2c-0.2,0.2 -0.2,0.4 -0.2,0.6c0,0.2 0,0.3 0.1,0.5c0.1,0.2 0.3,0.3 0.6,0.5l1.1,0.5c0.6,0.3 1,0.5 1.2,0.9c0.2,0.3 0.3,0.8 0.3,1.4c-0.1,0.9 -0.5,1.5 -0.9,1.9Z" style="fill:#fff;fill-rule:nonzero;"/><path d="M63,82.9c0,1 0,1.7 0.3,2c0.1,0.2 0.3,0.3 0.7,0.3c0.3,0 0.5,-0.1 0.6,-0.3c0.1,-0.2 0.2,-0.5 0.2,-0.7l1.6,0c0,0.7 -0.2,1.4 -0.7,1.9c-0.4,0.5 -1.1,0.7 -1.8,0.7c-0.8,0 -1.3,-0.2 -1.8,-0.7c-0.7,-0.7 -0.8,-2.1 -0.8,-3.6c0,-1.5 0.1,-2.9 0.8,-3.6c0.5,-0.5 1.1,-0.7 1.8,-0.7c0.7,0 1.3,0.1 1.8,0.7c0.8,0.9 0.7,2.6 0.8,4.1l-3.5,0l0,-0.1Zm1.5,-2.9c-0.1,-0.2 -0.3,-0.3 -0.6,-0.3c-0.3,0 -0.5,0.1 -0.7,0.3c-0.2,0.2 -0.3,0.9 -0.3,1.7l1.8,0c0,-0.8 0,-1.5 -0.2,-1.7Z" style="fill:#fff;fill-rule:nonzero;"/><path d="M71,86.6l0,-0.6c-0.1,0.2 -0.4,0.4 -0.6,0.5c-0.2,0.1 -0.5,0.2 -0.8,0.2c-0.6,0 -1.1,-0.2 -1.5,-0.6c-0.6,-0.7 -0.6,-1.9 -0.6,-3.7c0,-1.8 0,-3 0.6,-3.6c0.4,-0.5 0.8,-0.7 1.5,-0.7c0.3,0 0.6,0.1 0.8,0.2c0.2,0.1 0.4,0.3 0.5,0.4l0,-3.5l1.7,0l0,11.3l-1.6,0l0,0.1Zm-0.1,-5.9c0,-0.4 -0.1,-0.6 -0.3,-0.8c-0.1,-0.1 -0.4,-0.2 -0.6,-0.2c-0.3,0 -0.5,0.1 -0.6,0.3c-0.2,0.4 -0.2,1.2 -0.2,2.5c0,1.3 0,2.1 0.2,2.5c0.1,0.2 0.4,0.3 0.6,0.3c0.2,0 0.4,-0.1 0.6,-0.2c0.2,-0.2 0.3,-0.4 0.3,-0.8l0,-3.6Z" style="fill:#fff;fill-rule:nonzero;"/></g></g></g><path d="M54.6,93.9l0,25.3l40.1,0l0,-25.3l25.3,0l0,-40.1l-25.3,0l0,-25.3l-40.1,0l0,25.3" style="fill:none;fill-rule:nonzero;stroke:#f2eee8;stroke-width:2px;"/></g></svg>