<?xml version="1.0" encoding="utf-8"?>
<!-- Generator: Adobe Illustrator 22.0.0, SVG Export Plug-In . SVG Version: 6.00 Build 0)  -->
<svg version="1.1" id="Layer_1" xmlns="http://www.w3.org/2000/svg" xmlns:xlink="http://www.w3.org/1999/xlink" x="0px" y="0px"
	 viewBox="0 0 148 147.7" style="enable-background:new 0 0 148 147.7;" xml:space="preserve">
<style type="text/css">
	.st0{fill:#FF8300;}
	.st1{fill:#FFFFFF;}
	.st2{fill:none;stroke:#F2EEE8;stroke-width:2;stroke-miterlimit:10;}
</style>
<polygon class="st0" points="74,6.9 82.6,0 89.4,8.7 99.3,4 103.9,14 114.7,11.7 116.8,22.5 127.9,22.7 127.5,33.8 138.2,36.5
	135.2,47.2 145,52.3 139.7,62 148,69.3 140.6,77.5 147,86.5 137.9,92.7 142,103 131.7,107 133.4,117.9 122.5,119.4 121.6,130.4
	110.6,129.3 107.2,139.8 96.8,136.3 91.1,145.7 81.7,139.8 74,147.7 66.2,139.8 56.9,145.7 51.2,136.3 40.7,139.8 37.3,129.3
	26.3,130.4 25.5,119.4 14.5,117.9 16.2,107 5.9,103 10.1,92.7 1,86.5 7.4,77.5 0,69.3 8.3,62 3,52.3 12.7,47.2 9.8,36.5 20.5,33.8
	20.1,22.7 31.1,22.5 33.3,11.7 44,14 48.6,4 58.6,8.7 65.4,0 "/>
<g>
	<path class="st0" d="M8.1,73.9C8.1,37.5,37.6,8,74,8c36.4,0,65.9,29.5,65.9,65.9s-29.5,65.9-65.9,65.9
		C37.6,139.7,8.1,110.2,8.1,73.9"/>
</g>
<g>
	<g>
		<path class="st1" d="M29.2,70.6l-2.7-6.7v6.7h-1.8V59.3h1.6L29,66v-6.7h1.8v11.3H29.2z"/>
		<path class="st1" d="M35.7,70.6v-0.7c-0.1,0.2-0.3,0.4-0.5,0.6c-0.3,0.2-0.5,0.3-1,0.3c-0.7,0-1.1-0.2-1.6-0.7
			c-0.3-0.4-0.5-1-0.5-1.9c0-0.8,0.3-1.4,0.8-1.9c0.4-0.4,1-0.6,1.9-0.6h0.7v-1.2c0-0.6-0.3-1-0.8-1c-0.3,0-0.4,0.1-0.6,0.2
			C34.1,64,34,64.3,34,64.6h-1.7c0-0.7,0.2-1.3,0.7-1.8c0.4-0.4,1.1-0.7,1.8-0.7c0.7,0,1.3,0.2,1.8,0.6c0.4,0.4,0.7,1.1,0.7,2v5.9
			H35.7z M35.6,66.9h-0.6c-0.4,0-0.6,0-0.9,0.3c-0.2,0.2-0.3,0.6-0.3,0.9c0,0.7,0.3,1.2,0.9,1.2c0.5,0,0.9-0.4,0.9-1.1V66.9z"/>
		<path class="st1" d="M40.1,70.1c-0.5-0.4-0.8-1-0.8-2v-4.5h-0.9v-1.3h0.9v-2.1h1.7v2.1h1.2v1.3h-1.2V68c0,0.8,0.4,1.1,1.2,1.1v1.5
			C41.3,70.6,40.6,70.5,40.1,70.1z"/>
		<path class="st1" d="M43.2,61.2v-1.9H45v1.9H43.2z M43.2,70.6v-8.1h1.7v8.1H43.2z"/>
		<path class="st1" d="M50.9,69.9c-0.5,0.7-1.2,0.9-2,0.9s-1.5-0.2-2-0.9c-0.5-0.7-0.6-2-0.6-3.4c0-1.4,0.1-2.7,0.6-3.4
			c0.5-0.7,1.2-0.9,2-0.9s1.5,0.2,2,0.9c0.5,0.7,0.6,2,0.6,3.4C51.5,67.8,51.4,69.1,50.9,69.9z M49.5,64c-0.1-0.2-0.4-0.3-0.7-0.3
			s-0.5,0.1-0.6,0.3C48,64.4,48,65.2,48,66.4c0,1.2,0,2.1,0.2,2.5c0.1,0.2,0.4,0.3,0.6,0.3s0.5-0.1,0.7-0.3c0.2-0.4,0.2-1.2,0.2-2.5
			C49.8,65.2,49.8,64.4,49.5,64z"/>
		<path class="st1" d="M56.2,70.6v-6c0-0.6-0.4-1-0.8-1c-0.5,0-0.8,0.3-0.8,1v6h-1.7v-8.4h1.6v0.6c0.1-0.2,0.3-0.4,0.6-0.5
			c0.2-0.1,0.5-0.2,0.8-0.2c0.7,0,1.1,0.2,1.5,0.7c0.3,0.4,0.5,0.8,0.5,1.8v6H56.2z"/>
		<path class="st1" d="M62.6,70.6v-0.7c-0.1,0.2-0.3,0.4-0.5,0.6c-0.3,0.2-0.5,0.3-1,0.3c-0.7,0-1.1-0.2-1.6-0.7
			c-0.3-0.4-0.5-1-0.5-1.9c0-0.8,0.3-1.4,0.8-1.9c0.4-0.4,1-0.6,1.9-0.6h0.7v-1.2c0-0.6-0.3-1-0.8-1c-0.3,0-0.4,0.1-0.6,0.2
			c-0.2,0.2-0.3,0.4-0.3,0.8h-1.7c0-0.7,0.2-1.3,0.7-1.8c0.4-0.4,1.1-0.7,1.8-0.7c0.7,0,1.3,0.2,1.8,0.6c0.4,0.4,0.7,1.1,0.7,2v5.9
			H62.6z M62.5,66.9H62c-0.4,0-0.6,0-0.9,0.3c-0.2,0.2-0.3,0.6-0.3,0.9c0,0.7,0.3,1.2,0.9,1.2c0.5,0,0.9-0.4,0.9-1.1V66.9z"/>
		<path class="st1" d="M66.6,70.1c-0.5-0.4-0.8-1-0.8-2v-8.7h1.7V68c0,0.7,0.4,1.1,1.1,1.1v1.5C67.8,70.6,67.1,70.5,66.6,70.1z"/>
		<path class="st1" d="M70.4,70.1c-0.5-0.4-0.8-1-0.8-2v-8.7h1.7V68c0,0.7,0.4,1.1,1.1,1.1v1.5C71.7,70.6,71,70.5,70.4,70.1z"/>
		<path class="st1" d="M76.3,71.7c-0.4,1.7-1.6,1.9-3.1,1.9v-1.5c0.7,0,1.3-0.1,1.5-0.9l0.1-0.6l-2.1-8.3h1.9l1.1,5.7l1.1-5.7h1.9
			L76.3,71.7z"/>
		<g>
			<path class="st1" d="M88.7,70c-0.5,0.4-1.2,0.7-2.2,0.7c-1,0-1.7-0.3-2.2-0.7c-0.5-0.5-0.7-1.2-0.7-2.4h1.8c0,0.6,0.1,1,0.3,1.3
				c0.2,0.2,0.4,0.3,0.8,0.3c0.4,0,0.7-0.1,0.9-0.3c0.2-0.3,0.3-0.6,0.3-1.3c0-1.2-0.2-1.5-1.1-1.9l-1.3-0.6
				c-1.1-0.5-1.6-1.1-1.6-2.8c0-1,0.3-1.8,0.9-2.4c0.5-0.4,1.1-0.7,1.9-0.7c0.9,0,1.6,0.2,2,0.7c0.6,0.6,0.8,1.4,0.8,2.5h-1.8
				c0-0.5,0-0.9-0.3-1.2c-0.2-0.2-0.4-0.3-0.8-0.3c-0.4,0-0.6,0.1-0.8,0.3c-0.2,0.2-0.3,0.6-0.3,1.1c0,0.9,0.1,1.2,0.9,1.5l1.3,0.5
				c1.3,0.6,1.7,1.3,1.7,3.2C89.4,68.6,89.2,69.4,88.7,70z"/>
			<path class="st1" d="M92,70.1c-0.5-0.4-0.8-1-0.8-2v-4.5h-0.9v-1.3h0.9v-2.1h1.7v2.1H94v1.3h-1.2V68c0,0.8,0.4,1.1,1.2,1.1v1.5
				C93.2,70.6,92.6,70.5,92,70.1z"/>
			<path class="st1" d="M98.3,70.6v-0.7c-0.1,0.2-0.3,0.4-0.5,0.6c-0.3,0.2-0.5,0.3-1,0.3c-0.7,0-1.1-0.2-1.6-0.7
				c-0.3-0.4-0.5-1-0.5-1.9c0-0.8,0.3-1.4,0.8-1.9c0.4-0.4,1-0.6,1.9-0.6h0.7v-1.2c0-0.6-0.3-1-0.8-1c-0.3,0-0.4,0.1-0.6,0.2
				c-0.2,0.2-0.3,0.4-0.3,0.8h-1.7c0-0.7,0.2-1.3,0.7-1.8c0.4-0.4,1.1-0.7,1.8-0.7c0.7,0,1.3,0.2,1.8,0.6c0.4,0.4,0.7,1.1,0.7,2v5.9
				H98.3z M98.2,66.9h-0.6c-0.4,0-0.6,0-0.9,0.3c-0.2,0.2-0.3,0.6-0.3,0.9c0,0.7,0.3,1.2,0.9,1.2c0.5,0,0.9-0.4,0.9-1.1V66.9z"/>
			<path class="st1" d="M102.7,70.1c-0.5-0.4-0.8-1-0.8-2v-4.5H101v-1.3h0.9v-2.1h1.7v2.1h1.2v1.3h-1.2V68c0,0.8,0.4,1.1,1.2,1.1
				v1.5C103.9,70.6,103.2,70.5,102.7,70.1z"/>
			<path class="st1" d="M107.3,66.9c0,1,0,1.7,0.3,2c0.1,0.2,0.3,0.3,0.7,0.3c0.3,0,0.5-0.1,0.6-0.3c0.1-0.2,0.2-0.5,0.2-0.7h1.7
				c0,0.7-0.2,1.4-0.7,1.9c-0.4,0.5-1.1,0.7-1.8,0.7c-0.8,0-1.3-0.2-1.8-0.7c-0.7-0.7-0.8-2.1-0.8-3.6c0-1.5,0.1-2.9,0.8-3.6
				c0.5-0.5,1.1-0.7,1.8-0.7c0.7,0,1.3,0.1,1.8,0.7c0.8,0.9,0.7,2.6,0.8,4.1H107.3z M108.8,64c-0.1-0.2-0.3-0.3-0.6-0.3
				s-0.5,0.1-0.6,0.3c-0.2,0.2-0.3,0.9-0.3,1.7h1.8C109,64.8,109,64.2,108.8,64z"/>
		</g>
		<g>
			<path class="st1" d="M28.3,82.9V85h-1.6v-2.1h-2.1v-1.6h2.1v-2.1h1.6v2.1h2.1v1.6H28.3z"/>
			<path class="st1" d="M39.9,85.7c-0.5,0.5-1.1,0.9-2.2,0.9h-2.9V75.4h2.9c1.1,0,1.7,0.4,2.2,0.9c0.8,0.9,0.8,2.5,0.8,4.7
				C40.8,83.2,40.8,84.8,39.9,85.7z M38.6,77.4c-0.2-0.3-0.5-0.5-0.9-0.5h-1V85h1c0.4,0,0.7-0.2,0.9-0.5c0.3-0.5,0.4-1.6,0.4-3.6
				C39,79,38.9,77.9,38.6,77.4z"/>
			<path class="st1" d="M42.4,86.6V75.4h4.7V77h-3v3.2h2.6v1.6h-2.6V85h3v1.6H42.4z"/>
			<path class="st1" d="M53.2,86.6l-0.5-2.2h-2.6l-0.4,2.2h-1.9l2.8-11.3h1.7L55,86.6H53.2z M51.4,78.1l-1,4.7h1.9L51.4,78.1z"/>
			<path class="st1" d="M58.9,86.6V75.4h1.8V85h3v1.6H58.9z"/>
			<path class="st1" d="M64.7,77.2v-1.9h1.9v1.9H64.7z M64.8,86.6v-8.1h1.7v8.1H64.8z"/>
			<path class="st1" d="M72.3,86.1c-0.4,0.4-1,0.6-1.8,0.6c-0.8,0-1.5-0.2-2-0.9c-0.5-0.7-0.6-2-0.6-3.4c0-1.4,0.1-2.7,0.6-3.4
				c0.5-0.7,1.2-0.9,2-0.9c0.7,0,1.3,0.1,1.8,0.6c0.5,0.5,0.7,1.3,0.7,2h-1.7c0-0.3,0-0.6-0.2-0.8c-0.1-0.2-0.3-0.3-0.6-0.3
				c-0.3,0-0.5,0.1-0.6,0.3c-0.2,0.4-0.2,1.2-0.2,2.5s0,2.1,0.2,2.5c0.1,0.2,0.4,0.3,0.6,0.3c0.3,0,0.5-0.1,0.6-0.3
				c0.2-0.2,0.2-0.5,0.2-0.8H73C72.9,85,72.7,85.7,72.3,86.1z"/>
			<path class="st1" d="M75.7,82.9c0,1,0,1.7,0.3,2c0.1,0.2,0.3,0.3,0.7,0.3c0.3,0,0.5-0.1,0.6-0.3c0.1-0.2,0.2-0.5,0.2-0.7h1.7
				c0,0.7-0.2,1.4-0.7,1.9c-0.4,0.5-1.1,0.7-1.8,0.7c-0.8,0-1.3-0.2-1.8-0.7C74.1,85.4,74,84,74,82.5s0.1-2.9,0.8-3.6
				c0.5-0.5,1.1-0.7,1.8-0.7c0.7,0,1.3,0.1,1.8,0.7c0.8,0.9,0.7,2.6,0.8,4.1H75.7z M77.2,80c-0.1-0.2-0.3-0.3-0.6-0.3
				s-0.5,0.1-0.6,0.3c-0.2,0.2-0.3,0.9-0.3,1.7h1.8C77.4,80.9,77.4,80.2,77.2,80z"/>
			<path class="st1" d="M83.8,86.6v-6c0-0.7-0.4-1-0.8-1c-0.5,0-0.8,0.3-0.8,1v6h-1.7v-8.4h1.6v0.6c0.1-0.2,0.3-0.4,0.6-0.5
				c0.2-0.1,0.5-0.2,0.8-0.2c0.7,0,1.1,0.2,1.5,0.7c0.3,0.4,0.5,0.8,0.5,1.8v6H83.8z"/>
			<path class="st1" d="M91.1,86.1c-0.5,0.5-1.1,0.7-1.8,0.7c-0.7,0-1.4-0.2-1.8-0.7c-0.5-0.5-0.7-1.1-0.7-1.9h1.7
				c0,0.3,0.1,0.6,0.3,0.8c0.2,0.2,0.4,0.3,0.6,0.3c0.3,0,0.5-0.1,0.7-0.2c0.2-0.1,0.2-0.4,0.2-0.7c0-0.2,0-0.4-0.2-0.6
				s-0.3-0.3-0.6-0.5l-1.1-0.5c-0.6-0.3-1-0.6-1.2-1c-0.2-0.3-0.3-0.7-0.3-1.1c0-0.8,0.3-1.3,0.7-1.8c0.5-0.5,1.1-0.7,1.8-0.7
				c0.7,0,1.3,0.2,1.8,0.6c0.4,0.4,0.7,1,0.7,1.9h-1.6c0-0.4-0.1-0.6-0.2-0.8c-0.2-0.2-0.4-0.3-0.6-0.3c-0.3,0-0.5,0.1-0.6,0.2
				c-0.2,0.2-0.2,0.4-0.2,0.6c0,0.2,0,0.3,0.1,0.5c0.1,0.2,0.3,0.3,0.6,0.5l1.1,0.5c0.6,0.3,1,0.5,1.2,0.9c0.2,0.3,0.3,0.8,0.3,1.4
				C91.9,85.1,91.5,85.7,91.1,86.1z"/>
			<path class="st1" d="M94.6,82.9c0,1,0,1.7,0.3,2c0.1,0.2,0.3,0.3,0.7,0.3c0.3,0,0.5-0.1,0.6-0.3c0.1-0.2,0.2-0.5,0.2-0.7H98
				c0,0.7-0.2,1.4-0.7,1.9c-0.4,0.5-1.1,0.7-1.8,0.7c-0.8,0-1.3-0.2-1.8-0.7c-0.7-0.7-0.8-2.1-0.8-3.6s0.1-2.9,0.8-3.6
				c0.5-0.5,1.1-0.7,1.8-0.7c0.7,0,1.3,0.1,1.8,0.7c0.8,0.9,0.7,2.6,0.8,4.1H94.6z M96.1,80c-0.1-0.2-0.3-0.3-0.6-0.3
				S95,79.8,94.8,80c-0.2,0.2-0.3,0.9-0.3,1.7h1.8C96.3,80.9,96.3,80.2,96.1,80z"/>
			<path class="st1" d="M102.6,86.6V86c-0.1,0.2-0.4,0.4-0.6,0.5c-0.2,0.1-0.5,0.2-0.8,0.2c-0.6,0-1.1-0.2-1.5-0.6
				c-0.6-0.7-0.6-1.9-0.6-3.7c0-1.8,0-3,0.6-3.6c0.4-0.5,0.8-0.7,1.5-0.7c0.3,0,0.6,0.1,0.8,0.2c0.2,0.1,0.4,0.3,0.5,0.4v-3.5h1.7
				v11.3H102.6z M102.5,80.7c0-0.4-0.1-0.6-0.3-0.8c-0.1-0.1-0.4-0.2-0.6-0.2c-0.3,0-0.5,0.1-0.6,0.3c-0.2,0.4-0.2,1.2-0.2,2.5
				s0,2.1,0.2,2.5c0.1,0.2,0.4,0.3,0.6,0.3c0.2,0,0.4-0.1,0.6-0.2c0.2-0.2,0.3-0.4,0.3-0.8V80.7z"/>
		</g>
	</g>
	<g>
		<polyline class="st2" points="54.6,93.9 54.6,119.2 94.7,119.2 94.7,93.9 120,93.9 120,53.8 94.7,53.8 94.7,28.5 54.6,28.5
			54.6,53.8 		"/>
	</g>
</g>
</svg>
