<?xml version="1.0" encoding="utf-8"?>
<!-- Generator: Adobe Illustrator 22.1.0, SVG Export Plug-In . SVG Version: 6.00 Build 0)  -->
<svg version="1.1" id="Слой_1" xmlns="http://www.w3.org/2000/svg" xmlns:xlink="http://www.w3.org/1999/xlink" x="0px" y="0px"
	 viewBox="0 0 128.6 128.7" style="enable-background:new 0 0 128.6 128.7;" xml:space="preserve">
<style type="text/css">
	.st0{fill:#FFFFFF;}
</style>
<g>
	<path class="st0" d="M67.2,96.4c-9-3.7-11.1-5-11.1-5l-0.1-8.6c0,0,3.4-2.6,4.4-10.7c2.1,0.6,4.3-3.1,4.4-5.1
		c0.1-1.9-0.3-7.2-2.8-6.6c0.5-4,0.9-7.5,0.7-9.4c-0.7-6.9-7.4-14.2-17.9-14.2C34.4,36.8,27.6,44.1,27,51c-0.2,1.9,0.2,5.4,0.7,9.4
		c-2.6-0.5-3,4.7-2.9,6.6c0.1,2,2.3,5.7,4.4,5.1c1,8.1,4.4,10.7,4.4,10.7l-0.1,8.6c0,0-2.1,1.3-11.1,5c-9,3.7-18,6.3-20.7,10.5
		c-2.4,3.8-1.7,21.8-1.7,21.8h44.7h44.7c0,0,0.7-18.1-1.7-21.8C85.2,102.7,76.2,100.1,67.2,96.4z"/>
	<polygon class="st0" points="48.3,0 48.3,24.1 56.3,24.1 56.3,8 120.6,8 120.6,48.2 112.8,48.1 110,48.1 107.8,49.7 88.4,64.2 
		88.4,56.2 88.4,48.1 80.3,48.1 72.4,48.2 72.4,56.2 80.3,56.2 80.3,80.3 112.7,56.2 128.6,56.4 128.6,0 	"/>
</g>
</svg>
