<?xml version="1.0" encoding="utf-8"?>
<!-- Generator: Adobe Illustrator 22.1.0, SVG Export Plug-In . SVG Version: 6.00 Build 0)  -->
<svg version="1.1" id="Слой_1" xmlns="http://www.w3.org/2000/svg" xmlns:xlink="http://www.w3.org/1999/xlink" x="0px" y="0px"
	 viewBox="0 0 110 98.4" style="enable-background:new 0 0 110 98.4;" xml:space="preserve">
<style type="text/css">
	.st0{fill:#FF8300;}
</style>
<g>
	<g id="XMLID_370_">
		<g>
			<path class="st0" d="M55,97.6c-0.7,0-0.7,0-9.8-7.6l-4.9-4.1c-1.9-1.5-3.7-3.1-5.6-4.6c-5.2-4.2-10.6-8.6-15.6-13.3
				C14.1,63.1,8.3,57.7,4.7,50.6C-1.7,38.4-2.9,20.2,9.4,9.1c5.9-5.3,12-8.3,18.2-9C37-0.8,47.4,3,55,10.2c7.7-7.2,18-11,27.4-10
				c6.3,0.7,12.3,3.6,18.2,9c12.3,11.1,11.1,29.2,4.8,41.5c-0.1,0.1-0.2,0.3-0.3,0.4c-0.6,0.7-1.6,0.7-2.2,0.1
				c-0.6-0.5-0.7-1.4-0.3-2c5.8-11.2,6.9-27.7-4.1-37.6C93,6.6,87.6,3.9,82,3.3c-8.9-0.9-18.8,3-25.9,10.2c-0.6,0.6-1.7,0.6-2.3,0
				C46.8,6.3,36.9,2.4,28,3.3c-5.6,0.6-11,3.3-16.4,8.2C0.5,21.4,1.7,38,7.5,49.1c3.4,6.6,9,11.9,13.8,16.5
				c4.9,4.7,10.2,9,15.4,13.2c1.9,1.5,3.8,3.1,5.6,4.6l4.9,4.1c2.7,2.3,6.2,5.2,7.8,6.5c0.6-0.5,1.4-1.2,2.5-2
				c0.7-0.6,1.7-0.5,2.2,0.2c0.6,0.7,0.5,1.7-0.2,2.2C55.7,97.6,55.7,97.6,55,97.6z"/>
		</g>
	</g>
	<g id="XMLID_368_">
		<g>
			<path class="st0" d="M81.1,98.4c-0.1,0-0.2,0-0.3,0h0C66,98.2,54.1,86,54.2,71.2c0.1-7.2,2.9-13.9,8.1-19
				c5.1-5,11.9-7.8,19.1-7.7c7.2,0.1,13.9,2.9,19,8.1s7.8,11.9,7.7,19.1C107.9,86.5,95.8,98.4,81.1,98.4z M80.9,95.2
				c13,0.2,23.8-10.4,24-23.5c0.1-6.3-2.3-12.3-6.8-16.9c-4.4-4.5-10.4-7.1-16.7-7.1c-0.1,0-0.2,0-0.2,0c-6.2,0-12.1,2.4-16.6,6.8
				c-4.5,4.4-7.1,10.4-7.1,16.7C57.3,84.3,67.8,95.1,80.9,95.2L80.9,95.2z"/>
		</g>
	</g>
	<g id="XMLID_366_">
		<g>
			<path class="st0" d="M85.3,88.9C85.3,88.9,85.3,88.9,85.3,88.9l-8.7-0.1c-0.4,0-0.8-0.2-1.1-0.5C75.2,88,75,87.6,75,87.2l0.1-9.9
				l-9.8-0.1c-0.4,0-0.8-0.2-1.1-0.5c-0.3-0.3-0.5-0.7-0.5-1.1l0.1-8.7c0-0.9,0.7-1.6,1.6-1.6c0,0,0,0,0,0l9.8,0.1l0.1-9.9
				c0-0.9,0.8-1.7,1.6-1.6l8.7,0.1c0.4,0,0.8,0.2,1.1,0.5c0.3,0.3,0.5,0.7,0.5,1.1l-0.1,9.9l9.8,0.1c0.4,0,0.8,0.2,1.1,0.5
				c0.3,0.3,0.5,0.7,0.5,1.1L98.4,76c0,0.9-0.7,1.5-1.6,1.6L87,77.5l-0.1,9.9C86.9,88.2,86.2,88.9,85.3,88.9z M78.2,85.7l5.5,0.1
				l0.1-9.9c0-0.4,0.2-0.8,0.5-1.1c0.3-0.3,0.8-0.4,1.1-0.5l9.8,0.1l0.1-5.5l-9.8-0.1c-0.9,0-1.6-0.7-1.6-1.6l0.1-9.9l-5.5-0.1
				l-0.1,9.9c0,0.4-0.2,0.8-0.5,1.1c-0.3,0.3-0.7,0.5-1.1,0.5L67,68.6L67,74.1l9.8,0.1c0.9,0,1.6,0.7,1.6,1.6L78.2,85.7z"/>
		</g>
	</g>
</g>
</svg>
