<?xml version="1.0" encoding="utf-8"?>
<!-- Generator: Adobe Illustrator 22.0.0, SVG Export Plug-In . SVG Version: 6.00 Build 0)  -->
<svg version="1.1" id="Layer_1" xmlns="http://www.w3.org/2000/svg" xmlns:xlink="http://www.w3.org/1999/xlink" x="0px" y="0px"
	 viewBox="0 0 82.5 63.9" style="enable-background:new 0 0 82.5 63.9;" xml:space="preserve">
<style type="text/css">
	.st0{fill:#FFFFFF;}
</style>
<g id="XMLID_562_">
	<g id="XMLID_567_">
		<g id="XMLID_577_">
			<g id="XMLID_578_">
				<g id="XMLID_580_">
					<g id="XMLID_585_">
						<path class="st0" d="M36.5,63.9c-0.1,0-0.1,0-0.2,0c-0.6-0.1-0.9-0.6-0.9-1.2c0.1-0.5,0.2-1,0.2-1.4c0.6-2.8,0.3-5.6-0.7-8
							c-0.6-1.4-1.3-2.7-2.2-3.9c-2.9-3.8-6.2-5.4-8.4-6.1c-0.8-0.2-1.6-0.4-2.5-0.5c-0.2,0-0.4-0.1-0.6-0.3
							c-0.1-0.1-6.9-6.3-9.9-8.3c-1.2-0.8-2.7-0.7-3.9,0.1l7,8.5l3.3,5.7c0.3,0.5,0.1,1.1-0.4,1.4c-0.5,0.3-1.1,0.1-1.4-0.4L12.8,44
							l-7.5-9.1c-0.3-0.4-0.3-0.9,0-1.3c1.8-2.1,4.9-2.5,7.2-1c2.8,1.9,8.7,7.1,9.9,8.2c0.9,0.1,1.7,0.3,2.5,0.5
							c2.6,0.8,6.3,2.6,9.5,6.8c1,1.3,1.8,2.8,2.5,4.4c1.1,2.8,1.4,6,0.8,9.2c-0.1,0.4-0.2,0.9-0.2,1.3C37.5,63.5,37,63.9,36.5,63.9
							z"/>
					</g>
					<g id="XMLID_584_">
						<path class="st0" d="M20.9,63.9c-0.4,0-0.7-0.2-0.9-0.6c-0.7-1.3-1.6-2.4-2.7-3.3L4.5,47.7C3,46.3,2,44.5,1.6,42.5
							C0.9,38.6,0,33.6,0,31.4l1.4-16.7c0-0.4,0.2-0.8,0.5-1c0.6-0.5,1.4-0.2,1.7-0.1c1.1,0.4,2,1.1,2.6,2c0.1,0.1,0.2,0.3,0.3,0.5
							c0.7,1.3,0.6,3.1,0.4,4.8C7,21.6,7,22.2,6.9,22.8l0.8,7.9c0.1,0.6-0.4,1.1-0.9,1.1c-0.6,0.1-1.1-0.4-1.1-0.9l-0.8-8
							c0-0.7,0.1-1.4,0.1-2c0.1-1.4,0.2-2.9-0.2-3.6c-0.1-0.1-0.1-0.2-0.2-0.3c-0.3-0.5-0.8-0.9-1.2-1.1L2.1,31.5
							c0,1.5,0.6,5.3,1.6,10.6c0.3,1.6,1.1,3,2.2,4.1l12.7,12.2c1.3,1,2.4,2.4,3.2,4c0.3,0.5,0.1,1.1-0.5,1.4
							C21.2,63.8,21,63.9,20.9,63.9z M3.5,14.8L3.5,14.8C3.5,14.9,3.5,14.9,3.5,14.8z"/>
					</g>
					<g id="XMLID_583_">
						<path class="st0" d="M9.7,29.8c-0.5,0-1-0.4-1-0.9l-0.4-4.5c0-1.3,0-2.7,0-4.1c0-1.1,0-2.3,0-3.3c0-0.4-0.1-0.8-0.2-1.2
							l-0.2-0.5c-0.3-0.6-0.7-1.1-1.3-1.3l-0.2,2.4c0,0.6-0.5,1-1,1s-1-0.5-1-1v-2.4c0-0.7,0.3-1.3,0.9-1.7c0.5-0.4,1.2-0.5,1.9-0.3
							L7.4,12c1.1,0.4,1.9,1.3,2.4,2.4L10,15c0.3,0.6,0.4,1.3,0.4,2c0,1,0,2.2,0,3.3c0,1.4,0,2.8,0,4l0.4,4.4
							C10.8,29.2,10.4,29.7,9.7,29.8C9.8,29.8,9.8,29.8,9.7,29.8z"/>
					</g>
					<g id="XMLID_582_">
						<path class="st0" d="M13.9,30.8c-0.5,0-0.9-0.3-1-0.8L12,25.9c0-0.1,0-0.2,0-0.3c0.4-5.5-0.5-7-1-7.3
							c-0.2-0.2-0.4-0.2-0.5-0.2c-0.5,0.2-1.1-0.1-1.3-0.7c-0.2-0.5,0.1-1.1,0.7-1.3c0.1,0,1.2-0.4,2.3,0.5c1.6,1.2,2.2,4.2,1.8,9
							l0.8,4c0.1,0.6-0.2,1.1-0.8,1.2C14,30.8,14,30.8,13.9,30.8z"/>
					</g>
					<g id="XMLID_581_">
						<path class="st0" d="M36.5,54"/>
					</g>
				</g>
				<g id="XMLID_579_">
					<path class="st0" d="M19.9,37.3c-0.4,0-0.8-0.2-0.9-0.6l-2.5-5.7c0-0.1-0.1-0.2-0.1-0.3L15.8,25c-0.6-2.1-2.3-3.1-2.4-3.1
						c-0.5-0.3-0.7-0.9-0.5-1.4c0.3-0.5,0.9-0.7,1.4-0.5c0.1,0.1,2.6,1.3,3.4,4.5l0.7,5.6l2.4,5.6c0.2,0.5,0,1.1-0.5,1.4
						C20.2,37.2,20.1,37.3,19.9,37.3z"/>
				</g>
			</g>
		</g>
		<g id="XMLID_568_">
			<g id="XMLID_569_">
				<g id="XMLID_571_">
					<g id="XMLID_576_">
						<path class="st0" d="M46,63.9c-0.5,0-0.9-0.4-1-0.9c-0.1-0.5-0.1-0.9-0.2-1.3c-0.6-3.2-0.4-6.4,0.8-9.2c0.6-1.6,1.5-3,2.5-4.4
							c3.2-4.3,7-6.1,9.5-6.8c0.8-0.2,1.6-0.4,2.5-0.5c1.3-1.1,7.1-6.4,9.9-8.2c2.3-1.5,5.4-1.1,7.2,1c0.3,0.4,0.3,0.9,0,1.3
							l-7.6,9.3l-3.1,5.5c-0.3,0.5-0.9,0.7-1.4,0.4c-0.5-0.3-0.7-0.9-0.4-1.4l3.2-5.6l7.1-8.7c-1.2-0.8-2.7-0.9-3.9-0.1
							c-3,2-9.9,8.2-9.9,8.3c-0.2,0.1-0.4,0.2-0.6,0.3c-0.9,0.1-1.7,0.3-2.5,0.5c-2.3,0.7-5.6,2.3-8.4,6.1c-0.9,1.2-1.6,2.5-2.2,3.9
							c-1,2.4-1.2,5.2-0.7,8c0.1,0.5,0.2,0.9,0.2,1.4c0.1,0.6-0.3,1.1-0.9,1.2C46.1,63.9,46,63.9,46,63.9z"/>
					</g>
					<g id="XMLID_575_">
						<path class="st0" d="M61.6,63.9c-0.2,0-0.3,0-0.5-0.1c-0.5-0.3-0.7-0.9-0.5-1.4c0.8-1.6,1.9-2.9,3.3-4l12.6-12.1
							c1.1-1.1,1.9-2.5,2.2-4.1c1-5.2,1.6-9.1,1.6-10.7l-1.3-15.6c-0.5,0.2-0.9,0.6-1.2,1.1c-0.1,0.1-0.2,0.3-0.2,0.4
							c-0.4,0.7-0.3,2.3-0.2,3.6c0.1,0.7,0.1,1.3,0.1,1.9l-0.8,8.1c-0.1,0.6-0.6,1-1.1,0.9c-0.6-0.1-1-0.6-0.9-1.1l0.8-8
							c0-0.4-0.1-1-0.1-1.7c-0.1-1.7-0.3-3.5,0.4-4.8c0.1-0.2,0.2-0.4,0.4-0.6c0.6-0.9,1.5-1.6,2.6-2c0.3-0.1,1.1-0.4,1.7,0.1
							c0.3,0.2,0.5,0.6,0.5,1.1l1.4,16.5c0,2.3-0.9,7.3-1.6,11.2c-0.4,2-1.4,3.8-2.8,5.2L65.4,59.9c-1.2,1-2.2,2.1-2.8,3.4
							C62.4,63.7,62,63.9,61.6,63.9z M79,14.9C79,14.9,79,15,79,14.9L79,14.9z"/>
					</g>
					<g id="XMLID_574_">
						<path class="st0" d="M72.8,29.8C72.7,29.8,72.7,29.8,72.8,29.8c-0.7-0.1-1.1-0.6-1-1.1l0.4-4.5c0-1.1,0-2.5,0-4
							c0-1.1,0-2.3,0-3.3c0-0.7,0.1-1.4,0.4-2l0.2-0.5c0.5-1.1,1.3-2,2.4-2.4l0.3-0.1c0.6-0.2,1.3-0.1,1.9,0.3
							c0.5,0.4,0.9,1,0.9,1.7v2.4c0,0.6-0.5,1-1,1c-0.6,0-1-0.5-1-1v-2.4c-0.7,0.3-1.2,0.8-1.4,1.4l-0.2,0.5
							c-0.2,0.4-0.2,0.8-0.2,1.2c0,1,0,2.1,0,3.3c0,1.4,0,2.9,0,4.1l-0.4,4.5C73.7,29.4,73.3,29.8,72.8,29.8z"/>
					</g>
					<g id="XMLID_573_">
						<path class="st0" d="M68.6,30.8c-0.1,0-0.1,0-0.2,0c-0.6-0.1-0.9-0.7-0.8-1.2l0.9-4c-0.4-4.8,0.2-7.8,1.8-9
							c1.1-0.8,2.1-0.5,2.3-0.5c0.5,0.2,0.8,0.8,0.7,1.3c-0.2,0.5-0.7,0.8-1.3,0.7c0,0-0.2,0-0.4,0.2c-0.4,0.4-1.4,1.9-1,7.3
							c0,0.1,0,0.2,0,0.3L69.6,30C69.5,30.5,69.1,30.8,68.6,30.8z"/>
					</g>
					<g id="XMLID_572_">
						<path class="st0" d="M46,54"/>
					</g>
				</g>
				<g id="XMLID_570_">
					<path class="st0" d="M62.5,37.3c-0.1,0-0.3,0-0.4-0.1c-0.5-0.2-0.8-0.8-0.5-1.4l2.4-5.6l0.6-5.5c0.9-3.4,3.4-4.6,3.5-4.7
						c0.5-0.3,1.1,0,1.4,0.5c0.3,0.5,0.1,1.1-0.5,1.4l0,0c-0.1,0-1.8,0.9-2.4,3.2l-0.6,5.5c0,0.1,0,0.2-0.1,0.3l-2.5,5.7
						C63.3,37,62.9,37.3,62.5,37.3z"/>
				</g>
			</g>
		</g>
	</g>
	<g id="XMLID_563_">
		<g id="XMLID_566_">
			<path class="st0" d="M63,18.1c-0.4,0-0.8-0.3-1-0.7C59.1,8.2,50.8,2.1,41.2,2.1c-9.4,0-17.7,6-20.7,14.9
				c-0.2,0.5-0.8,0.8-1.3,0.6c-0.5-0.2-0.8-0.8-0.6-1.3C21.8,6.6,30.9,0,41.2,0C51.7,0,60.8,6.7,64,16.7c0.2,0.5-0.1,1.1-0.7,1.3
				C63.2,18,63.1,18.1,63,18.1z"/>
		</g>
		<g id="XMLID_565_">
			<path class="st0" d="M41.2,42.6c-10.3,0-18.7-8.4-18.7-18.7S30.9,5.2,41.2,5.2s18.7,8.4,18.7,18.7S51.5,42.6,41.2,42.6z
				 M41.2,7.3c-9.2,0-16.6,7.5-16.6,16.6S32,40.5,41.2,40.5s16.6-7.5,16.6-16.6S50.4,7.3,41.2,7.3z"/>
		</g>
		<g id="XMLID_564_">
			<path class="st0" d="M43.9,34.7h-5.4c-0.6,0-1-0.5-1-1v-6.1h-6.1c-0.6,0-1-0.5-1-1v-5.4c0-0.6,0.5-1,1-1h6.1v-6.1
				c0-0.6,0.5-1,1-1h5.4c0.6,0,1,0.5,1,1v6.1H51c0.6,0,1,0.5,1,1v5.4c0,0.6-0.5,1-1,1h-6.1v6.1C44.9,34.2,44.5,34.7,43.9,34.7z
				 M39.5,32.6h3.4v-6.1c0-0.6,0.5-1,1-1H50v-3.4h-6.1c-0.6,0-1-0.5-1-1v-6.1h-3.4v6.1c0,0.6-0.5,1-1,1h-6.1v3.4h6.1
				c0.6,0,1,0.5,1,1V32.6z"/>
		</g>
	</g>
</g>
</svg>
