<?xml version="1.0" encoding="utf-8"?>
<!-- Generator: Adobe Illustrator 22.0.0, SVG Export Plug-In . SVG Version: 6.00 Build 0)  -->
<svg version="1.1" id="Layer_1" xmlns="http://www.w3.org/2000/svg" xmlns:xlink="http://www.w3.org/1999/xlink" x="0px" y="0px"
	 viewBox="0 0 57.1 70.6" style="enable-background:new 0 0 57.1 70.6;" xml:space="preserve">
<style type="text/css">
	.st0{fill:#FFFFFF;}
</style>
<g>
	<g id="XMLID_554_">
		<g id="XMLID_561_">
			<path class="st0" d="M12.3,61.1H3.7c-2,0-3.7-1.7-3.7-3.7V34.9c0-0.5,0.4-1,1-1s1,0.4,1,1v22.5c0,0.9,0.8,1.7,1.7,1.7h8.6
				c0.9,0,1.7-0.8,1.7-1.7V34.9c0-0.9-0.8-1.7-1.7-1.7H3.7c-0.5,0-1-0.4-1-1c0-0.5,0.4-1,1-1h8.6c2,0,3.7,1.7,3.7,3.7v22.5
				C15.9,59.4,14.3,61.1,12.3,61.1z"/>
		</g>
		<g id="XMLID_560_">
			<path class="st0" d="M8.7,50.2c-0.5,0-1-0.4-1-1V32.2c0-0.5,0.4-1,1-1c0.5,0,1,0.4,1,1v17.1C9.6,49.8,9.2,50.2,8.7,50.2z"/>
		</g>
		<g id="XMLID_559_">
			<path class="st0" d="M53.4,61.1h-8.6c-2,0-3.7-1.7-3.7-3.7V34.9c0-2,1.7-3.7,3.7-3.7h8.6c0.5,0,1,0.4,1,1c0,0.5-0.4,1-1,1h-8.6
				c-0.9,0-1.7,0.8-1.7,1.7v22.5c0,0.9,0.8,1.7,1.7,1.7h8.6c0.9,0,1.7-0.8,1.7-1.7V34.9c0-0.5,0.4-1,1-1s1,0.4,1,1v22.5
				C57.1,59.4,55.5,61.1,53.4,61.1z"/>
		</g>
		<g id="XMLID_558_">
			<path class="st0" d="M48.5,50.2c-0.5,0-1-0.4-1-1V32.2c0-0.5,0.4-1,1-1s1,0.4,1,1v17.1C49.5,49.8,49,50.2,48.5,50.2z"/>
		</g>
		<g id="XMLID_557_">
			<path class="st0" d="M50.6,25.8c-0.5,0-0.9-0.4-1-0.9c-0.5-4.5-2.6-8.5-6-11.7c-4-3.8-9.3-5.9-15-5.9c-9.2,0-17.3,5.5-20.2,13.8
				c-0.2,0.5-0.7,0.8-1.3,0.6c-0.5-0.2-0.8-0.7-0.6-1.3c3.1-9,12-15.1,22-15.1c6.2,0,12,2.3,16.4,6.4c3.7,3.5,6,8,6.6,12.9
				c0.1,0.5-0.3,1-0.9,1.1C50.7,25.8,50.6,25.8,50.6,25.8z"/>
		</g>
		<g id="XMLID_556_">
			<path class="st0" d="M56.1,41.7c-0.5,0-1-0.4-1-1V27.2c0-6.8-2.8-13.1-7.8-17.9C42.3,4.6,35.6,2,28.6,2C13.9,2,2,13.3,2,27.2
				v13.5c0,0.5-0.4,1-1,1s-1-0.4-1-1V27.2C0,12.2,12.8,0,28.6,0c7.6,0,14.7,2.8,20.1,7.9c5.5,5.2,8.5,12,8.5,19.4v13.5
				C57.1,41.3,56.7,41.7,56.1,41.7z"/>
		</g>
		<g id="XMLID_555_">
			<path class="st0" d="M27.2,70.6c-0.8,0-1.6-0.2-2.3-0.6c-1.2-0.7-2-2-2-3.4c0-0.8,0.1-1.6,0.3-2.3c0.7-2,2.9-3.2,5-2.7l1.9,0.4
				c1.9,0.4,3.3,1.9,3.7,3.7h16.5c2.7,0,4.8-2.2,4.8-4.8v-3.5c0-0.5,0.4-1,1-1s1,0.4,1,1v3.5c0,3.8-3.1,6.8-6.8,6.8H32.9
				c-0.5,0-1-0.4-1-1c0-1.3-0.9-2.5-2.2-2.8l-1.9-0.4c-1.2-0.3-2.3,0.3-2.7,1.4c-0.2,0.5-0.2,1-0.2,1.5c0,0.8,0.4,1.5,1.1,1.9
				c0.7,0.4,1.5,0.5,2.2,0.1l1-0.4c0.5-0.2,1.1,0,1.3,0.5c0.2,0.5,0,1.1-0.5,1.3l-1,0.4C28.4,70.5,27.8,70.6,27.2,70.6z"/>
		</g>
	</g>
	<g>
		<g id="XMLID_6_">
			<path class="st0" d="M28.6,52.1c-1.4,0-2.5-1.1-2.5-2.5v-0.1c-1-0.3-1.9-0.8-2.7-1.4c-1.2-1.1-1.8-2.6-1.8-4.5c0-0.5,0.5-1,1-1
				c0,0,0,0,0,0c0.6,0,1,0.5,1,1c0,1.3,0.3,2.3,1.1,2.9c0.7,0.6,1.5,1,2.6,1.1c0.5,0.1,0.8,0.5,0.8,1v0.9c0,0.6,1,0.6,1,0v-1
				c0-0.5,0.4-0.9,0.8-1c1-0.2,1.8-0.5,2.4-1.1c0.7-0.6,1-1.4,1-2.5c0-1-0.3-1.7-1.1-2.4c-0.4-0.4-0.4-1-0.1-1.4
				c0.4-0.4,1-0.4,1.4-0.1c1.2,1.1,1.7,2.3,1.7,3.9c0,1.6-0.6,3-1.7,4c-0.7,0.6-1.5,1.1-2.5,1.4v0.2C31.2,51,30,52.1,28.6,52.1z"/>
		</g>
		<g id="XMLID_5_">
			<path class="st0" d="M33,41.9c-0.2,0-0.5-0.1-0.7-0.2c-0.7-0.6-1.8-1.2-3.4-1.7c-0.8-0.3-1.8-0.9-2.1-2c-0.2-0.7-0.1-1.4,0.3-2
				c0.4-0.5,1-0.8,1.6-0.8c0.6,0,1,0.4,1,1c0,0.6-0.4,1-1,1c-0.1,0-0.1,0.1,0,0.2c0.1,0.3,0.4,0.5,0.8,0.7c1.8,0.6,3.1,1.3,4.1,2.1
				c0.4,0.4,0.5,1,0.1,1.4C33.5,41.8,33.2,41.9,33,41.9z"/>
		</g>
		<g id="XMLID_1_">
			<path class="st0" d="M28.6,46.3c-0.6,0-1-0.4-1-1c0-0.6,0.4-1,1-1c0,0,0-0.1-0.2-0.2c-0.6-0.4-1.2-0.7-2-1c-1-0.4-2-0.9-2.9-1.7
				c-1-1-1.6-2.3-1.6-3.9c0-1.6,0.6-3,1.7-4c0.7-0.6,1.5-1.1,2.5-1.4v-0.2c0-1.4,1.1-2.5,2.5-2.5s2.5,1.1,2.5,2.5V32
				c1,0.3,1.9,0.8,2.7,1.4c1.2,1.1,1.8,2.6,1.8,4.5c0,0.6-0.4,1-1,1c-0.6,0-1-0.5-1-1c0-1.3-0.3-2.3-1.1-2.9c-0.7-0.6-1.5-1-2.6-1.1
				c-0.5-0.1-0.8-0.5-0.8-1v-0.9c0-0.6-1-0.6-1,0v1c0,0.5-0.4,0.9-0.8,1c-1,0.2-1.8,0.5-2.4,1.1c-0.7,0.6-1,1.4-1,2.5
				c0,0.7,0.2,1.7,0.9,2.5c0.6,0.6,1.5,1,2.3,1.4c0.8,0.4,1.6,0.7,2.3,1.3c0.9,0.6,1,1.3,1,1.8C30.6,45.4,29.7,46.3,28.6,46.3z"/>
		</g>
	</g>
</g>
</svg>
