<?xml version="1.0" encoding="utf-8"?>
<!-- Generator: Adobe Illustrator 22.1.0, SVG Export Plug-In . SVG Version: 6.00 Build 0)  -->
<svg version="1.1" id="Слой_1" xmlns="http://www.w3.org/2000/svg" xmlns:xlink="http://www.w3.org/1999/xlink" x="0px" y="0px"
	 viewBox="0 0 106 108.6" style="enable-background:new 0 0 106 108.6;" xml:space="preserve">
<style type="text/css">
	.st0{fill:#FFFFFF;}
</style>
<g>
	<g>
		<polygon class="st0" points="92.4,74.6 92.4,61 78.8,61 78.8,74.6 65.1,74.6 65.1,88.2 78.8,88.2 78.8,101.8 92.4,101.8 
			92.4,88.2 106,88.2 106,74.6 		"/>
		<path class="st0" d="M54.5,95V67.8h6.8V61h5l-0.1-6.7c0,0,4-3,5.2-12.6c2.5,0.7,5.1-3.7,5.2-6c0.1-2.2-0.3-8.5-3.4-7.8
			c0.6-4.7,1.1-8.9,0.8-11.1C73.4,8.6,65.3,0,53,0S32.6,8.6,31.8,16.7c-0.2,2.2,0.2,6.4,0.8,11.1c-3-0.6-3.5,5.6-3.4,7.8
			c0.1,2.3,2.7,6.7,5.2,6c1.2,9.5,5.2,12.6,5.2,12.6l-0.1,10.1c0,0-2.5,1.5-13.1,5.9C16,74.8,5.3,77.9,2.1,82.8
			c-2.9,4.4-2,25.8-2,25.8H53h15.1v-6.8V95h-2.9H54.5z"/>
	</g>
</g>
</svg>
