<?xml version="1.0" encoding="utf-8"?>
<!-- Generator: Adobe Illustrator 22.1.0, SVG Export Plug-In . SVG Version: 6.00 Build 0)  -->
<svg version="1.1" id="Слой_1" xmlns="http://www.w3.org/2000/svg" xmlns:xlink="http://www.w3.org/1999/xlink" x="0px" y="0px"
	 viewBox="0 0 107.6 123" style="enable-background:new 0 0 107.6 123;" xml:space="preserve">
<style type="text/css">
	.st0{fill:#FFFFFF;}
</style>
<g>
	<g>
		<path class="st0" d="M84.6,15.4H69.2C69.2,6.9,62.3,0,53.8,0c-8.5,0-15.4,6.9-15.4,15.4H23.1v15.4h61.5V15.4z M53.8,23.1
			c-4.2,0-7.7-3.4-7.7-7.7s3.4-7.7,7.7-7.7c4.2,0,7.7,3.4,7.7,7.7S58.1,23.1,53.8,23.1z"/>
		<path class="st0" d="M92.3,15.4v23.1H15.4V15.4H0V123h7.7h7.7h76.9h7.7h7.7V15.4H92.3z M50.2,106.6l-5.4-5.4L23.1,79.4l10.9-10.9
			l16.3,16.3l31-31l10.9,10.9L50.2,106.6z"/>
	</g>
</g>
</svg>
