<?xml version="1.0" encoding="utf-8"?>
<!-- Generator: Adobe Illustrator 22.0.0, SVG Export Plug-In . SVG Version: 6.00 Build 0)  -->
<svg version="1.1" id="Layer_1" xmlns="http://www.w3.org/2000/svg" xmlns:xlink="http://www.w3.org/1999/xlink" x="0px" y="0px"
	 viewBox="0 0 73.7 83.4" style="enable-background:new 0 0 73.7 83.4;" xml:space="preserve">
<style type="text/css">
	.st0{fill:#FFFFFF;}
</style>
<g id="XMLID_477_">
	<g id="XMLID_553_">
		<path class="st0" d="M38.5,34.6h-6.1c-0.6,0-1.2-0.5-1.2-1.2v-6.7h-6.8c-0.6,0-1.2-0.5-1.2-1.2v-6.1c0-0.6,0.5-1.2,1.2-1.2h6.8
			v-6.7c0-0.6,0.5-1.2,1.2-1.2h6.1c0.6,0,1.2,0.5,1.2,1.2v6.7h6.8c0.6,0,1.2,0.5,1.2,1.2v6.1c0,0.6-0.5,1.2-1.2,1.2h-6.8v6.7
			C39.7,34.1,39.2,34.6,38.5,34.6z M33.6,32.2h3.7v-6.7c0-0.6,0.5-1.2,1.2-1.2h6.8v-3.7h-6.8c-0.6,0-1.2-0.5-1.2-1.2v-6.7h-3.7v6.7
			c0,0.6-0.5,1.2-1.2,1.2h-6.8v3.7h6.8c0.6,0,1.2,0.5,1.2,1.2V32.2z"/>
	</g>
	<g id="XMLID_552_">
		<path class="st0" d="M36.9,73.2c-11.3,0-23.4-3-23.4-8.5c0-1.1,0.6-2.8,3.2-4.5c0.6-0.3,1.3-0.2,1.6,0.4c0.3,0.6,0.2,1.3-0.4,1.6
			c-1.4,0.8-2.1,1.7-2.1,2.5c0,2.6,8,6.1,21,6.1c13,0,21-3.6,21-6.1c0-0.8-0.8-1.8-2.4-2.6c-0.6-0.3-0.8-1-0.4-1.6
			c0.3-0.6,1-0.8,1.6-0.4c2.9,1.7,3.5,3.5,3.5,4.7C60.2,70.3,48.2,73.2,36.9,73.2z"/>
	</g>
	<g id="XMLID_551_">
		<path class="st0" d="M36.9,83.4C19,83.4,0,78.9,0,70.5c0-2.4,1.6-4.6,4.9-6.6c0.6-0.3,1.3-0.2,1.6,0.4c0.3,0.6,0.2,1.3-0.4,1.6
			c-1.7,1-3.7,2.7-3.7,4.6c0,5,14.2,10.6,34.5,10.6c20.3,0,34.5-5.6,34.5-10.6c0-2-2.3-3.8-4.2-4.8c-0.6-0.3-0.8-1-0.4-1.6
			c0.3-0.6,1-0.8,1.6-0.4c4.4,2.5,5.4,5.1,5.4,6.9C73.7,78.9,54.7,83.4,36.9,83.4z"/>
	</g>
	<g id="XMLID_479_">
		<path class="st0" d="M35.6,62.8c-1,0-1.9-0.4-2.6-1.1C29.5,57.9,21,48.5,17.1,42.8c-1.1-1.7-2-4.7-2-6.7v-4.4
			c0-0.6,0.5-1.2,1.2-1.2c0.6,0,1.2,0.5,1.2,1.2v4.4c0,1.6,0.7,4.1,1.6,5.4c3.8,5.6,12.2,14.9,15.7,18.6c0.5,0.5,1.3,0.5,1.8,0
			c3.7-4,11.4-12.3,14.1-15.3c0.4-0.5,1.2-0.5,1.7-0.1c0.5,0.4,0.5,1.2,0.1,1.7c-2.8,3.1-10.5,11.4-14.2,15.3
			C37.6,62.4,36.6,62.8,35.6,62.8L35.6,62.8z"/>
	</g>
	<g id="XMLID_478_">
		<path class="st0" d="M35.5,45c-4.4,0-8.7-1.3-12.3-3.7c-0.5-0.4-0.7-1.1-0.3-1.6c0.4-0.5,1.1-0.7,1.6-0.3c3.3,2.2,7.1,3.3,11,3.3
			c11.1,0,20.1-9,20.1-20.1s-9-20.1-20.1-20.1s-20.1,9-20.1,20.1c0,3,0.7,5.9,1.9,8.7c0.3,0.6,0,1.3-0.6,1.6c-0.6,0.3-1.3,0-1.6-0.6
			c-1.4-3-2.2-6.3-2.2-9.7C13,10.1,23.1,0,35.5,0S58,10.1,58,22.5S47.9,45,35.5,45z"/>
	</g>
</g>
</svg>
