<?xml version="1.0" encoding="utf-8"?>
<!-- Generator: Adobe Illustrator 22.1.0, SVG Export Plug-In . SVG Version: 6.00 Build 0)  -->
<svg version="1.1" id="Слой_1" xmlns="http://www.w3.org/2000/svg" xmlns:xlink="http://www.w3.org/1999/xlink" x="0px" y="0px"
	 viewBox="0 0 112.7 59.9" style="enable-background:new 0 0 112.7 59.9;" xml:space="preserve">
<style type="text/css">
	.st0{fill:#FFFFFF;}
</style>
<g>
	<g id="XMLID_3_">
		<g>
			<g id="XMLID_126_">
				<path class="st0" d="M104.6,50.1H90.1c-0.8,0-1.5-0.7-1.5-1.5s0.7-1.5,1.5-1.5h14.6c2.1,0,5-1.7,5-2.9V37c0-2.7-1.5-4.8-2.8-6.2
					L83.4,5.4C82.1,3.9,79.9,3,77.6,3H9.2C5.8,3,3,5.8,3,9.2v37.9h9.5c0.8,0,1.5,0.7,1.5,1.5s-0.7,1.5-1.5,1.5h-11
					c-0.8,0-1.5-0.7-1.5-1.5V9.2C0,4.1,4.1,0,9.2,0h68.4c3.2,0,6.1,1.2,8.1,3.3L109,28.8c2.4,2.5,3.7,5.3,3.7,8.3v7.2
					C112.7,47.9,107.5,50.1,104.6,50.1z"/>
			</g>
			<g id="XMLID_125_">
				<path class="st0" d="M70.6,50.1H32c-0.8,0-1.5-0.7-1.5-1.5s0.7-1.5,1.5-1.5h38.6c0.8,0,1.5,0.7,1.5,1.5S71.4,50.1,70.6,50.1z"/>
			</g>
			<g id="XMLID_118_">
				<g id="XMLID_124_">
					<path class="st0" d="M22.2,59.9c-6.2,0-11.3-5-11.3-11.3s5-11.3,11.3-11.3s11.3,5,11.3,11.3S28.5,59.9,22.2,59.9z M22.2,40.4
						c-4.5,0-8.2,3.7-8.2,8.2s3.7,8.2,8.2,8.2s8.2-3.7,8.2-8.2S26.8,40.4,22.2,40.4z"/>
				</g>
				<g id="XMLID_119_">
					<path class="st0" d="M22.2,54c-3,0-5.4-2.4-5.4-5.4s2.4-5.4,5.4-5.4s5.4,2.4,5.4,5.4S25.2,54,22.2,54z M22.2,46.3
						c-1.3,0-2.3,1-2.3,2.3s1,2.3,2.3,2.3s2.3-1,2.3-2.3S23.5,46.3,22.2,46.3z"/>
				</g>
			</g>
			<g id="XMLID_117_">
				<path class="st0" d="M80.3,59.9c-6.2,0-11.3-5-11.3-11.3s5-11.3,11.3-11.3s11.3,5,11.3,11.3S86.5,59.9,80.3,59.9z M80.3,40.4
					c-4.5,0-8.2,3.7-8.2,8.2s3.7,8.2,8.2,8.2s8.2-3.7,8.2-8.2S84.9,40.4,80.3,40.4z"/>
			</g>
			<g id="XMLID_116_">
				<path class="st0" d="M80.3,54c-3,0-5.4-2.4-5.4-5.4s2.4-5.4,5.4-5.4s5.4,2.4,5.4,5.4S83.3,54,80.3,54z M80.3,46.3
					c-1.3,0-2.3,1-2.3,2.3s1,2.3,2.3,2.3c1.3,0,2.3-1,2.3-2.3S81.6,46.3,80.3,46.3z"/>
			</g>
			<g id="XMLID_115_">
				<path class="st0" d="M64.1,50.1c-0.8,0-1.5-0.7-1.5-1.5V1.5c0-0.8,0.7-1.5,1.5-1.5s1.5,0.7,1.5,1.5v47.1
					C65.6,49.5,64.9,50.1,64.1,50.1z"/>
			</g>
			<g id="XMLID_114_">
				<path class="st0" d="M105.4,28.5H64.1c-0.8,0-1.5-0.7-1.5-1.5s0.7-1.5,1.5-1.5h41.3c0.8,0,1.5,0.7,1.5,1.5
					S106.2,28.5,105.4,28.5z"/>
			</g>
			<g id="XMLID_111_">
				<g id="XMLID_113_">
					<path class="st0" d="M92.8,28.6c-0.5,0-0.9-0.2-1.2-0.6l-5.4-7.4c-0.5-0.7-0.3-1.6,0.3-2.1c0.7-0.5,1.6-0.3,2.1,0.3l5.4,7.4
						c0.5,0.7,0.3,1.6-0.3,2.1C93.4,28.5,93.1,28.6,92.8,28.6z"/>
				</g>
				<g id="XMLID_112_">
					<path class="st0" d="M83.8,23.7c-0.4,0-0.9-0.2-1.2-0.6c-0.5-0.7-0.4-1.6,0.2-2.1l6.5-5.3c0.7-0.5,1.6-0.4,2.1,0.2
						c0.5,0.7,0.4,1.6-0.2,2.1l-6.5,5.3C84.5,23.6,84.2,23.7,83.8,23.7z"/>
				</g>
			</g>
			<g id="XMLID_110_">
				<path class="st0" d="M83.8,41.1c-0.8,0-1.5-0.7-1.5-1.5V27c0-0.8,0.7-1.5,1.5-1.5s1.5,0.7,1.5,1.5v12.5
					C85.3,40.4,84.7,41.1,83.8,41.1z"/>
			</g>
			<g id="XMLID_109_">
				<path class="st0" d="M89.6,11.3H64.1c-0.8,0-1.5-0.7-1.5-1.5c0-0.8,0.7-1.5,1.5-1.5h25.5c0.8,0,1.5,0.7,1.5,1.5
					C91.1,10.7,90.4,11.3,89.6,11.3z"/>
			</g>
			<g id="XMLID_108_">
				<path class="st0" d="M111.2,40.4h-3.4c-0.8,0-1.5-0.7-1.5-1.5c0-0.8,0.7-1.5,1.5-1.5h3.4c0.8,0,1.5,0.7,1.5,1.5
					C112.7,39.7,112,40.4,111.2,40.4z"/>
			</g>
		</g>
	</g>
	<polygon class="st0" points="42.5,14.7 36,14.7 36,8.2 25.7,8.2 25.7,14.7 19.2,14.7 19.2,25 25.7,25 25.7,31.5 36,31.5 36,25 
		42.5,25 	"/>
</g>
</svg>
