<?xml version="1.0" encoding="utf-8"?>
<!-- Generator: Adobe Illustrator 22.1.0, SVG Export Plug-In . SVG Version: 6.00 Build 0)  -->
<svg version="1.1" id="Слой_1" xmlns="http://www.w3.org/2000/svg" xmlns:xlink="http://www.w3.org/1999/xlink" x="0px" y="0px"
	 viewBox="0 0 102.5 108.5" style="enable-background:new 0 0 102.5 108.5;" xml:space="preserve">
<style type="text/css">
	.st0{fill:#FF8300;}
</style>
<g id="XMLID_277_">
	<g id="XMLID_278_">
		<g id="XMLID_279_">
			<g id="XMLID_361_">
				<g id="XMLID_362_">
					<g id="XMLID_365_">
						<path class="st0" d="M85.5,99.4H73.7c-0.9,0-1.6-0.7-1.6-1.6v-5c0-0.9,0.7-1.6,1.6-1.6h1.7v-0.5c0-0.9,0.7-1.6,1.6-1.6
							c0.9,0,1.6,0.7,1.6,1.6v2.2c0,0.9-0.7,1.6-1.6,1.6h-1.7v1.8h8.5v-1.8h-1.8c-0.9,0-1.6-0.7-1.6-1.6L80.4,79
							c0-0.4,0.2-0.8,0.5-1.1c0.3-0.3,0.7-0.5,1.1-0.5h1.8v-0.7h-8.5v0.5H77c0.9,0,1.6,0.7,1.6,1.6v7.6c0,0.9-0.7,1.6-1.6,1.6
							c-0.9,0-1.6-0.7-1.6-1.6v-6h-1.7c-0.9,0-1.6-0.7-1.6-1.6v-3.8c0-0.9,0.7-1.6,1.6-1.6h11.7c0.9,0,1.6,0.7,1.6,1.6V79
							c0,0.9-0.7,1.6-1.6,1.6h-1.8l0.1,10.6h1.8c0.9,0,1.6,0.7,1.6,1.6v5C87.1,98.7,86.4,99.4,85.5,99.4z"/>
					</g>
					<g id="XMLID_364_">
						<path class="st0" d="M82.3,72.4c-0.5,0-0.9-0.2-1.2-0.6c-0.6-0.7-0.5-1.7,0.2-2.3c0.6-0.5,0.9-1.2,0.9-2
							c0-1.4-1.1-2.5-2.5-2.5c-1.4,0-2.5,1.1-2.5,2.5c0,0.7,0.3,1.4,0.9,1.9c0.7,0.6,0.7,1.6,0.2,2.3c-0.6,0.7-1.6,0.7-2.3,0.2
							c-1.3-1.1-2-2.7-2-4.3c0-3.2,2.6-5.8,5.8-5.8s5.8,2.6,5.8,5.8c0,1.7-0.8,3.3-2.1,4.4C83,72.2,82.6,72.4,82.3,72.4z"/>
					</g>
				</g>
			</g>
			<g id="XMLID_358_">
				<g id="XMLID_360_">
					<path class="st0" d="M62.7,104.8c-0.4,0-0.9-0.2-1.2-0.6c-2-2.3-3-5.1-3-8.1V66.2L53,62.5c-0.7-0.5-0.9-1.5-0.4-2.2
						c0.5-0.7,1.5-0.9,2.2-0.4L61,64c0.4,0.3,0.7,0.8,0.7,1.3v30.7c0,2.2,0.8,4.4,2.3,6c0.6,0.7,0.5,1.7-0.2,2.3
						C63.5,104.7,63.1,104.8,62.7,104.8z"/>
				</g>
				<g id="XMLID_359_">
					<path class="st0" d="M90.2,108.5H70.8c-0.9,0-1.6-0.7-1.6-1.6c0-0.9,0.7-1.6,1.6-1.6h19.4c5,0,9.2-4.1,9.2-9.2v-31
						c0-5-4.1-9.2-9.2-9.2H57.2c-0.9,0-1.6-0.7-1.6-1.6s0.7-1.6,1.6-1.6h32.9c6.8,0,12.4,5.6,12.4,12.4v31
						C102.5,102.9,97,108.5,90.2,108.5z"/>
				</g>
			</g>
			<g id="XMLID_280_">
				<g id="XMLID_357_">
					<path class="st0" d="M40.8,62.8c-0.4,0-0.9,0-1.3-0.1c-0.6-0.1-1.2-0.3-1.8-0.5c-1.8-0.6-3.4-1.5-5-2.7c-1.4-1.1-2.6-2.4-3.7-4
						c-2.8-4.4-4.7-9-5.7-13.9c-0.4-1.9-0.6-3.7-0.6-5.6v-0.7c0-0.6,0.4-1.2,1-1.5c8.4-3.8,9.9-11.5,10-11.9
						c0.1-0.8,0.8-1.3,1.6-1.3c0,0,0,0,0,0c0.8,0,1.4,0.6,1.6,1.3c0.1,0.5,2.3,11.7,20.3,11.9c0.9,0,1.6,0.7,1.6,1.6V36
						c0,1.9-0.2,3.8-0.5,5.5c0,0,0,0.1,0,0.1c-0.7,3.2-1.8,8.6-5.7,13.7c-0.1,0.1-1.6,2.1-3.9,4c-1.6,1.3-3.1,2.2-4.6,2.8
						c-0.9,0.4-1.8,0.5-1.9,0.5C41.7,62.7,41.3,62.8,40.8,62.8z M26.1,36.3c0,1.6,0.2,3.1,0.5,4.5c1,4.6,2.7,8.9,5.2,12.9
						c0.9,1.2,1.9,2.4,3,3.3c1.3,1,2.5,1.7,3.9,2.2c0.5,0.2,0.9,0.3,1.4,0.4c0.4,0.1,1,0.1,1.5,0l0,0c0,0,0.6-0.1,1.2-0.3
						c1.2-0.5,2.5-1.2,3.7-2.3c2-1.7,3.4-3.5,3.4-3.5c3.4-4.6,4.4-9.3,5.1-12.4c0,0,0-0.1,0-0.1c0.3-1.2,0.4-2.6,0.5-3.9
						c-12.2-0.6-17.7-6.2-20.1-10.3C34.1,29.8,31.3,33.7,26.1,36.3z"/>
				</g>
				<g id="XMLID_308_">
					<g id="XMLID_311_">
						<g id="XMLID_356_">
							<path class="st0" d="M37.6,44.7h-6.9c-1.6,0-2.9-1.3-2.9-2.9V39c0-1.6,1.3-2.9,2.9-2.9h6.9c1.6,0,2.9,1.3,2.9,2.9v2.8
								C40.5,43.4,39.2,44.7,37.6,44.7z M31.1,41.5h6.2v-2.2h-6.2V41.5z"/>
						</g>
						<g id="XMLID_355_">
							<path class="st0" d="M51,44.7h-6.9c-1.6,0-2.9-1.3-2.9-2.9V39c0-1.6,1.3-2.9,2.9-2.9H51c1.6,0,2.9,1.3,2.9,2.9v2.8
								C53.8,43.4,52.5,44.7,51,44.7z M44.4,41.5h6.2v-2.2h-6.2V41.5z"/>
						</g>
						<g id="XMLID_312_">
							<path class="st0" d="M42.8,41.7h-3.9c-0.9,0-1.6-0.7-1.6-1.6s0.7-1.6,1.6-1.6h3.9c0.9,0,1.6,0.7,1.6,1.6S43.7,41.7,42.8,41.7
								z"/>
						</g>
					</g>
					<g id="XMLID_309_">
						<path class="st0" d="M51,44.7h-6.9c-1.6,0-2.9-1.3-2.9-2.9V39c0-1.6,1.3-2.9,2.9-2.9H51c1.6,0,2.9,1.3,2.9,2.9v2.8
							C53.8,43.4,52.5,44.7,51,44.7z M44.4,41.5h6.2v-2.2h-6.2V41.5z"/>
					</g>
				</g>
				<g id="XMLID_307_">
					<path class="st0" d="M33.8,59.8c-0.4,0-0.7-0.1-1-0.4c-0.3-0.2-0.6-0.5-0.8-0.7l-0.5-0.5c-0.5-0.4-0.9-0.9-1.3-1.4
						c-0.3-0.3-0.5-0.7-0.8-1l-0.3-0.4c-0.6-0.9-1.2-1.9-1.7-2.9c0,0,0-0.1,0-0.1c-0.3-0.5-0.5-1-0.7-1.5c-0.3-0.5-0.5-1.1-0.8-1.7
						c0,0,0-0.1,0-0.1c-0.2-0.5-0.4-1.1-0.7-1.7c-0.1-0.3-0.2-0.6-0.3-1c-0.1-0.3-0.2-0.6-0.3-0.9c-0.1-0.2-0.1-0.4-0.2-0.7L24,43.9
						c-0.2-0.9-0.4-1.6-0.5-2.3c0-0.1-0.1-0.3-0.1-0.4c-0.2-0.7-0.3-1.6-0.4-2.5c0-0.5-0.1-0.9-0.1-1.4c0-0.5,0-0.9,0-1.4v-0.7
						c0-0.6,0.4-1.2,1-1.5c1.3-0.6,2.5-1.3,3.5-2.1c0.4-0.3,0.8-0.6,1.1-0.9c0.2-0.2,0.4-0.3,0.5-0.5l0.3-0.3
						c0.2-0.2,0.5-0.5,0.7-0.7c0.3-0.3,0.5-0.7,0.8-1l0.3-0.5c1.9-2.7,2.5-5.2,2.7-5.9c0-0.9,0.7-1.5,1.6-1.5c0.9,0,1.6,0.9,1.6,1.8
						v0c0,0.1,0,0.2,0,0.3c-0.2,0.9-0.9,3.9-3.2,7.1l-0.3,0.4c-0.5,0.6-0.8,1-1.1,1.4c-0.3,0.3-0.6,0.6-0.8,0.9l-0.3,0.3
						c-0.2,0.2-0.4,0.4-0.6,0.6c-0.4,0.4-0.9,0.8-1.4,1.1c-1,0.7-2,1.4-3.2,2c0,0.3,0,0.6,0,0.9c0,0.4,0,0.8,0.1,1.2
						c0.1,0.8,0.2,1.6,0.4,2.4c0,0,0,0,0,0.1c0,0.1,0.1,0.3,0.1,0.4c0.1,0.3,0.3,1,0.4,1.6l0.5,1.7c0.1,0.3,0.2,0.6,0.3,0.9
						c0.1,0.3,0.2,0.6,0.3,0.9c0.2,0.5,0.4,1.1,0.7,1.6c0,0,0,0.1,0,0.1c0.2,0.5,0.4,1,0.7,1.5c0.2,0.5,0.5,1,0.7,1.4
						c0,0.1,0.1,0.1,0.1,0.2c0.4,0.8,0.9,1.6,1.4,2.4l-1,1.3l1.3-0.9c0.2,0.3,0.4,0.5,0.6,0.8c0.3,0.4,0.7,0.8,1.1,1.2l0.4,0.3
						c0.2,0.2,0.5,0.4,0.7,0.6c0.7,0.6,0.8,1.6,0.2,2.3C34.7,59.6,34.3,59.8,33.8,59.8z"/>
				</g>
				<g id="XMLID_306_">
					<path class="st0" d="M61.4,38.8c0,0-0.1,0-0.1,0c-0.9-0.1-1.5-0.8-1.5-1.7c0.2-2.1,0.2-4.2,0.2-6.3c0-11.1-8.5-20.2-19.4-20.7
						l-0.3,0l-0.4,0C29,10.5,20.4,19.6,20.4,30.7c0,2.1,0.1,4.2,0.2,6.3c0.1,0.9-0.6,1.7-1.5,1.7c-0.9,0.1-1.7-0.6-1.7-1.5
						c-0.2-2.2-0.3-4.4-0.3-6.6c0-12.9,9.9-23.4,22.5-23.9l0.3,0c0.1,0,0.1,0,0.2,0l0,0c0,0,0.1,0,0.1,0l0.4,0
						c12.6,0.5,22.5,11.1,22.5,23.9c0,2.2-0.1,4.4-0.3,6.6C62.9,38.2,62.2,38.8,61.4,38.8z"/>
				</g>
				<g id="XMLID_305_">
					<path class="st0" d="M52.2,66.9c-0.3,0-0.6-0.1-0.9-0.2c-1-0.7-2.9-2.2-3.9-4.8c-0.5-1.4-0.6-3-0.4-4.5c0.1-0.9,1-1.5,1.8-1.3
						c0.9,0.1,1.5,1,1.3,1.8c-0.2,1-0.1,2,0.3,3c0.6,1.7,1.9,2.7,2.6,3.2c0.8,0.5,1,1.5,0.5,2.2C53.2,66.7,52.7,66.9,52.2,66.9z"/>
				</g>
				<g id="XMLID_304_">
					<path class="st0" d="M29.8,66.8c-0.5,0-1-0.2-1.3-0.7c-0.5-0.7-0.3-1.7,0.4-2.2c0.8-0.5,1.8-1.5,2.4-3c0.3-0.9,0.4-1.9,0.3-3
						c0-0.9,0.7-1.7,1.6-1.7c0.7,0,1.3,0.4,1.5,1l0,0c0,0,0,0,0,0.1c0,0,0,0.1,0,0.1c0,0.1,0,0.2,0,0.3c0.2,1.3,0.1,2.8-0.4,4.3
						c-0.8,2.4-2.4,3.8-3.6,4.6C30.4,66.7,30.1,66.8,29.8,66.8z"/>
				</g>
				<g id="XMLID_303_">
					<path class="st0" d="M51.1,13.3c-0.2,0-0.3,0-0.5-0.1c-0.9-0.3-1.3-1.2-1.1-2c0.1-0.4,0.2-0.9,0.2-1.4c0-3.7-4.3-6.6-9.6-6.6
						c-5.3,0-9.5,3-9.5,6.6c0,0.5,0.1,0.9,0.2,1.4c0.3,0.8-0.2,1.7-1.1,2c-0.9,0.3-1.7-0.2-2-1.1c-0.2-0.7-0.3-1.5-0.3-2.3
						c0-5.4,5.7-9.9,12.8-9.9C47.3,0,53,4.4,53,9.9c0,0.8-0.1,1.5-0.3,2.3C52.4,12.8,51.8,13.3,51.1,13.3z"/>
				</g>
				<g id="XMLID_302_">
					<path class="st0" d="M41,94.8c-0.2,0-0.4,0-0.6-0.1c-0.8-0.3-1.2-1.3-0.9-2.1l11.2-27.9c0.3-0.8,1.3-1.2,2.1-0.9
						c0.8,0.3,1.2,1.3,0.9,2.1L42.5,93.8C42.2,94.4,41.6,94.8,41,94.8z"/>
				</g>
				<g id="XMLID_301_">
					<path class="st0" d="M41,93.2"/>
				</g>
				<g id="XMLID_287_">
					<path class="st0" d="M41,94.8c-0.6,0-1.2-0.4-1.5-1L28.2,65.5l-14.3,4.5c-0.8,0.3-1.8-0.2-2-1.1c-0.3-0.8,0.2-1.7,1.1-2
						L28.7,62c0.8-0.3,1.7,0.2,2,1l0.6,1.6l11.2,28c0.3,0.8-0.1,1.8-0.9,2.1C41.4,94.8,41.2,94.8,41,94.8z"/>
				</g>
				<g id="XMLID_281_">
					<path class="st0" d="M70.8,108.5H15c-8.2,0-14.9-6.7-15-14.9l0-12.2c0-5.2,2.7-10,7-12.4c1.2-0.7,2.5-1.2,3.8-1.5l2-0.6
						c0.9-0.3,1.8,0.2,2,1.1c0.3,0.8-0.2,1.8-1.1,2l-2.2,0.7c-1.2,0.3-2.2,0.6-3.1,1.2c-3.3,1.9-5.4,5.5-5.4,9.6l0,12.2
						c0,6.5,5.3,11.7,11.8,11.7h55.8c0.9,0,1.6,0.7,1.6,1.6C72.4,107.8,71.7,108.5,70.8,108.5z"/>
				</g>
			</g>
		</g>
	</g>
</g>
</svg>
