<?xml version="1.0" encoding="utf-8"?>
<!-- Generator: Adobe Illustrator 22.1.0, SVG Export Plug-In . SVG Version: 6.00 Build 0)  -->
<svg version="1.1" id="Слой_1" xmlns="http://www.w3.org/2000/svg" xmlns:xlink="http://www.w3.org/1999/xlink" x="0px" y="0px"
	 viewBox="0 0 114.7 93.4" style="enable-background:new 0 0 114.7 93.4;" xml:space="preserve">
<style type="text/css">
	.st0{fill:#FFFFFF;}
</style>
<g>
	<g id="XMLID_192_">
		<g id="XMLID_194_">
			<path class="st0" d="M26.6,26.3c-0.8,0-1.4-0.6-1.4-1.4V8.6c0-0.8,0.6-1.4,1.4-1.4S28,7.9,28,8.6v16.2
				C28,25.7,27.4,26.3,26.6,26.3z"/>
		</g>
		<g id="XMLID_193_">
			<path class="st0" d="M34.8,18.2H18.4c-0.8,0-1.4-0.6-1.4-1.4s0.6-1.4,1.4-1.4h16.3c0.8,0,1.4,0.6,1.4,1.4S35.5,18.2,34.8,18.2z"
				/>
		</g>
	</g>
	<g id="XMLID_191_">
		<path class="st0" d="M26.6,32.8c-0.8,0-1.4-0.6-1.4-1.4c0-0.8,0.6-1.4,1.4-1.4c7.5,0,13.6-6.1,13.6-13.6c0-7.5-6.1-13.6-13.6-13.6
			C19.1,2.8,13,8.9,13,16.4c0,0.8-0.6,1.4-1.4,1.4s-1.4-0.6-1.4-1.4C10.2,7.4,17.5,0,26.6,0C35.6,0,43,7.4,43,16.4
			C43,25.5,35.6,32.8,26.6,32.8z"/>
	</g>
	<g id="XMLID_190_">
		<path class="st0" d="M113.3,93.4H1.4C0.6,93.4,0,92.7,0,92s0.6-1.4,1.4-1.4h111.9c0.8,0,1.4,0.6,1.4,1.4S114.1,93.4,113.3,93.4z"
			/>
	</g>
	<g id="XMLID_189_">
		<path class="st0" d="M103,93.4c-0.8,0-1.4-0.6-1.4-1.4V32.8H13V92c0,0.8-0.6,1.4-1.4,1.4s-1.4-0.6-1.4-1.4V31.4
			c0-0.8,0.6-1.4,1.4-1.4H103c0.8,0,1.4,0.6,1.4,1.4V92C104.4,92.7,103.8,93.4,103,93.4z"/>
	</g>
	<g id="XMLID_185_">
		<g id="XMLID_188_">
			<path class="st0" d="M74.6,93.4c-0.8,0-1.4-0.6-1.4-1.4V65.1c0-8.1-6.7-14.8-15.3-15.2c-1.2,0-2,0-2.9,0
				c-8.5,0.5-15.2,7.1-15.2,15.2V92c0,0.8-0.6,1.4-1.4,1.4c-0.8,0-1.4-0.6-1.4-1.4V65.1c0-9.5,7.8-17.4,17.9-18
				c0.9-0.1,1.9-0.1,2.9,0c0,0,0.3,0,0.3,0c10.1,0.5,18,8.4,18,18V92C76,92.7,75.4,93.4,74.6,93.4z"/>
		</g>
		<g id="XMLID_187_">
			<path class="st0" d="M56.5,93.4c-0.8,0-1.4-0.6-1.4-1.4V63.3c0-0.8,0.6-1.4,1.4-1.4c0.8,0,1.4,0.6,1.4,1.4V92
				C57.9,92.7,57.3,93.4,56.5,93.4z"/>
		</g>
		<g id="XMLID_186_">
			<path class="st0" d="M74.4,64.7H38.5c-0.8,0-1.4-0.6-1.4-1.4c0-0.8,0.6-1.4,1.4-1.4h35.9c0.8,0,1.4,0.6,1.4,1.4
				C75.8,64,75.2,64.7,74.4,64.7z"/>
		</g>
	</g>
	<g id="XMLID_176_">
		<g id="XMLID_184_">
			<path class="st0" d="M48.2,28.1h-4.4V16.9H48c1.2,0,2.2,0.4,3,1.2c0.7,0.8,1.1,1.8,1.1,2.9c0,1.2-0.4,2.2-1.1,2.9
				c-0.7,0.7-1.6,1.1-2.8,1.1V28.1z"/>
		</g>
		<g id="XMLID_183_">
			<rect x="50.3" y="16.9" class="st0" width="8.7" height="11.2"/>
		</g>
		<g id="XMLID_182_">
			<polygon class="st0" points="66.8,28.1 62.1,28.1 61.7,26.4 61.3,28.1 56.6,28.1 59.8,16.9 63.6,16.9 			"/>
		</g>
		<g id="XMLID_181_">
			<path class="st0" d="M71.2,28.1H69l-0.4-0.3v0.3h-4.4V16.9h3.9c1.2,0,2.2,0.3,2.9,1c0.5,0.5,1.2,1.4,1.2,2.8
				c0,0.7-0.2,1.3-0.5,1.8c0,0,0,0.1,0.1,0.1c0.3,0.5,0.5,1.2,0.5,2v0.6c0,0.1,0,0.2,0,0.4l0.3,0.3v2.1L71.2,28.1z"/>
		</g>
		<g id="XMLID_180_">
			<polygon class="st0" points="80.8,28.1 70.6,28.1 70.6,16.9 75.2,16.9 75.7,18.8 76.2,16.9 80.8,16.9 			"/>
		</g>
		<g id="XMLID_179_">
			<polygon class="st0" points="88.5,28.1 83.9,28.1 83.4,26.4 83,28.1 78.4,28.1 81.5,16.9 85.3,16.9 			"/>
		</g>
		<g id="XMLID_178_">
			<path class="st0" d="M90,28.2c-1.3,0-2.3-0.4-3.1-1.2c-0.8-0.8-1.2-1.9-1.2-3.3v-2.5c0-1.3,0.4-2.4,1.2-3.2
				c1.6-1.6,4.6-1.6,6.1-0.2c0.8,0.7,1.2,1.8,1.2,3.1l-0.1,0.5l-0.3,0.9l-3.6,0v0.4h3.6l0.4,1.4c0,1.3-0.4,2.3-1.1,3.1
				C92.3,27.8,91.3,28.2,90,28.2z"/>
		</g>
		<g id="XMLID_177_">
			<polygon class="st0" points="98.6,28.1 94.2,28.1 94.2,23.9 91,16.9 95.9,16.9 96.4,18.2 96.9,16.9 101.8,16.9 98.6,24 			"/>
		</g>
	</g>
	<g id="XMLID_175_">
		<path class="st0" d="M11.6,32.8c-0.8,0-1.4-0.6-1.4-1.4v-15c0-0.8,0.6-1.4,1.4-1.4s1.4,0.6,1.4,1.4v15
			C13,32.2,12.4,32.8,11.6,32.8z"/>
	</g>
	<g id="XMLID_164_">
		<path class="st0" d="M103,32.8c-0.8,0-1.4-0.6-1.4-1.4V12.6H48.5c-0.8,0-1.4-0.6-1.4-1.4s0.6-1.4,1.4-1.4H103
			c0.8,0,1.4,0.6,1.4,1.4v20.2C104.4,32.2,103.8,32.8,103,32.8z"/>
	</g>
</g>
</svg>
