<?xml version="1.0" encoding="utf-8"?>
<!-- Generator: Adobe Illustrator 22.1.0, SVG Export Plug-In . SVG Version: 6.00 Build 0)  -->
<svg version="1.1" id="Слой_1" xmlns="http://www.w3.org/2000/svg" xmlns:xlink="http://www.w3.org/1999/xlink" x="0px" y="0px"
	 viewBox="0 0 111.5 111.5" style="enable-background:new 0 0 111.5 111.5;" xml:space="preserve">
<style type="text/css">
	.st0{fill:#FFFFFF;}
</style>
<g>
	<g>
		<path class="st0" d="M110.5,95.5L91,76.1c4.9-7.7,7.8-16.8,7.8-26.6C98.9,22.1,76.7,0,49.4,0S0,22.1,0,49.4s22.1,49.4,49.4,49.4
			c9.8,0,18.9-2.9,26.6-7.8l19.5,19.5c1.4,1.4,3.6,1.4,5,0l10-10C111.9,99.1,111.9,96.9,110.5,95.5z M49.4,84.7
			c-19.5,0-35.3-15.8-35.3-35.3S30,14.1,49.4,14.1S84.7,30,84.7,49.4S68.9,84.7,49.4,84.7z"/>
	</g>
</g>
<g>
	<g>
		<path class="st0" d="M57.2,34H60c1.5,0,2.8-1.2,2.8-2.8c0-1.5-1.2-2.8-2.8-2.8h-2.8h-5.5v-2.8c0-1.5-1.2-2.8-2.8-2.8
			c-1.5,0-2.8,1.2-2.8,2.8v2.8h-2.8c-3.3,0-8.3,2.2-8.3,8.3v2.8v2.8c0,6.1,5,8.3,8.3,8.3h2.8v11h-5.5h-2.8c-1.5,0-2.8,1.2-2.8,2.8
			c0,1.5,1.2,2.8,2.8,2.8h2.8h5.5v2.8c0,1.5,1.2,2.8,2.8,2.8c1.5,0,2.8-1.2,2.8-2.8v-2.8h2.8c3.3,0,8.3-2.2,8.3-8.3v-2.8v-2.8
			c0-6.1-5-8.3-8.3-8.3h-2.8V34H57.2z M46.1,45.1h-2.8c-1.2,0-2.8-0.5-2.8-2.8v-2.8v-2.8c0-2.2,1.5-2.7,2.8-2.8h2.8V45.1z
			 M54.4,50.6c1.2,0,2.8,0.5,2.8,2.8v2.8v2.8c0,2.2-1.5,2.7-2.8,2.8h-2.8v-11H54.4z"/>
	</g>
</g>
</svg>
