<?xml version="1.0" encoding="utf-8"?>
<!-- Generator: Adobe Illustrator 22.1.0, SVG Export Plug-In . SVG Version: 6.00 Build 0)  -->
<svg version="1.1" id="Слой_1" xmlns="http://www.w3.org/2000/svg" xmlns:xlink="http://www.w3.org/1999/xlink" x="0px" y="0px"
	 viewBox="0 0 116 116" style="enable-background:new 0 0 116 116;" xml:space="preserve">
<style type="text/css">
	.st0{fill:#FFFFFF;}
</style>
<g>
	<g>
		<circle class="st0" cx="47.1" cy="105.1" r="10.9"/>
		<circle class="st0" cx="83.4" cy="105.1" r="10.9"/>
		<path class="st0" d="M111.4,36.8c-3.7-1.5-7.9,0.3-9.4,4L89.3,72.5H49L36,27c-0.9-3.1-3.7-5.3-7-5.3H7.2C3.2,21.7,0,25,0,29
			s3.2,7.2,7.2,7.2h16.3l13,45.5c0.9,3.1,3.7,5.3,7,5.3h50.7c3,0,5.6-1.8,6.7-4.6l14.5-36.2C117,42.5,115.2,38.3,111.4,36.8z"/>
		<polygon class="st0" points="94.2,21.7 79.7,21.7 79.7,0 65.2,0 65.2,21.7 50.7,21.7 72.5,50.7 		"/>
	</g>
</g>
</svg>
