<?xml version="1.0" encoding="utf-8"?>
<!-- Generator: Adobe Illustrator 22.1.0, SVG Export Plug-In . SVG Version: 6.00 Build 0)  -->
<svg version="1.1" id="Слой_1" xmlns="http://www.w3.org/2000/svg" xmlns:xlink="http://www.w3.org/1999/xlink" x="0px" y="0px"
	 viewBox="0 0 129.5 89" style="enable-background:new 0 0 129.5 89;" xml:space="preserve">
<style type="text/css">
	.st0{fill:#FFFFFF;}
</style>
<g>
	<g>
		<path class="st0" d="M34.8,50.6h18.6c0,0,0.3-3.7-0.7-5.3c-1.1-1.7-4.9-2.8-8.6-4.4c-3.7-1.6-4.6-2.1-4.6-2.1l0-3.6
			c0,0,1.4-1.1,1.8-4.4c0.9,0.3,1.8-1.3,1.8-2.1c0-0.8-0.1-3-1.2-2.7c0.2-1.7,0.4-3.1,0.3-3.9c-0.3-2.9-3.1-5.9-7.5-5.9
			c-4.3,0-7.2,3-7.4,5.9c-0.1,0.8,0.1,2.3,0.3,3.9c-1.1-0.2-1.2,2-1.2,2.7c0.1,0.8,1,2.4,1.8,2.1c0.4,3.4,1.8,4.4,1.8,4.4l0,3.6
			c0,0-0.9,0.5-4.6,2.1c-3.7,1.5-7.5,2.6-8.6,4.4c-1,1.6-0.7,5.3-0.7,5.3H34.8z"/>
		<rect x="64.7" y="16.2" class="st0" width="32.4" height="8.1"/>
		<rect x="64.7" y="32.4" class="st0" width="48.5" height="8.1"/>
		<rect x="64.7" y="48.5" class="st0" width="40.5" height="8.1"/>
		<path class="st0" d="M0,0v89h129.5V0H0z M121.4,80.9h-16.9c0.5-1.3,0.7-2.6,0.7-4c0-6.7-5.4-12.1-12.1-12.1
			c-6.7,0-12.1,5.4-12.1,12.1c0,1.4,0.3,2.8,0.7,4H47.8c0.5-1.3,0.7-2.6,0.7-4c0-6.7-5.4-12.1-12.1-12.1c-6.7,0-12.1,5.4-12.1,12.1
			c0,1.4,0.3,2.8,0.7,4H8.1V8.1h113.3V80.9z"/>
	</g>
</g>
</svg>
