<?xml version="1.0" encoding="utf-8"?>
<!-- Generator: Adobe Illustrator 22.1.0, SVG Export Plug-In . SVG Version: 6.00 Build 0)  -->
<svg version="1.1" id="Слой_1" xmlns="http://www.w3.org/2000/svg" xmlns:xlink="http://www.w3.org/1999/xlink" x="0px" y="0px"
	 viewBox="0 0 111 93.1" style="enable-background:new 0 0 111 93.1;" xml:space="preserve">
<style type="text/css">
	.st0{fill:#FF8300;}
</style>
<g id="XMLID_372_">
	<g id="XMLID_383_">
		<g id="XMLID_399_">
			<path class="st0" d="M104.9,93.1h-80c-0.9,0-1.6-0.7-1.6-1.6V71.1c0-0.9,0.7-1.6,1.6-1.6s1.6,0.7,1.6,1.6V90h78.4
				c0.9,0,1.6,0.7,1.6,1.6C106.5,92.4,105.8,93.1,104.9,93.1z"/>
		</g>
		<g id="XMLID_398_">
			<path class="st0" d="M24.9,31.2c-0.9,0-1.6-0.7-1.6-1.6v-28C23.3,0.7,24,0,24.9,0h80c0.9,0,1.6,0.7,1.6,1.6s-0.7,1.6-1.6,1.6
				H26.5v26.4C26.5,30.4,25.8,31.2,24.9,31.2z"/>
		</g>
		<g id="XMLID_397_">
			<path class="st0" d="M104.9,12.2c-0.9,0-1.6-0.7-1.6-1.6S104,9,104.9,9c1.6,0,3-1.3,3-2.9s-1.3-2.9-3-2.9s-3,1.3-3,2.9
				c0,0.9-0.7,1.6-1.6,1.6S98.7,7,98.7,6.1c0-3.4,2.8-6.1,6.2-6.1s6.2,2.7,6.2,6.1C111,9.5,108.3,12.2,104.9,12.2z"/>
		</g>
		<g id="XMLID_396_">
			<path class="st0" d="M104.9,21.2c-0.9,0-1.6-0.7-1.6-1.6s0.7-1.6,1.6-1.6c1.6,0,3-1.3,3-2.9s-1.3-2.9-3-2.9s-3,1.3-3,2.9
				c0,0.9-0.7,1.6-1.6,1.6s-1.6-0.7-1.6-1.6c0-3.4,2.8-6.1,6.2-6.1s6.2,2.7,6.2,6.1S108.3,21.2,104.9,21.2z"/>
		</g>
		<g id="XMLID_395_">
			<path class="st0" d="M104.9,30.2c-0.9,0-1.6-0.7-1.6-1.6c0-0.9,0.7-1.6,1.6-1.6c1.6,0,3-1.3,3-2.9s-1.3-2.9-3-2.9s-3,1.3-3,2.9
				c0,0.9-0.7,1.6-1.6,1.6s-1.6-0.7-1.6-1.6c0-3.4,2.8-6.1,6.2-6.1s6.2,2.7,6.2,6.1C111,27.4,108.3,30.2,104.9,30.2z"/>
		</g>
		<g id="XMLID_393_">
			<path class="st0" d="M104.9,39.2c-0.9,0-1.6-0.7-1.6-1.6c0-0.9,0.7-1.6,1.6-1.6c1.6,0,3-1.3,3-2.9c0-1.6-1.3-2.9-3-2.9
				s-3,1.3-3,2.9c0,0.9-0.7,1.6-1.6,1.6s-1.6-0.7-1.6-1.6c0-3.4,2.8-6.1,6.2-6.1s6.2,2.7,6.2,6.1S108.3,39.2,104.9,39.2z"/>
		</g>
		<g id="XMLID_391_">
			<path class="st0" d="M104.9,48.2c-0.9,0-1.6-0.7-1.6-1.6s0.7-1.6,1.6-1.6c1.6,0,3-1.3,3-2.9s-1.3-2.9-3-2.9s-3,1.3-3,2.9
				c0,0.9-0.7,1.6-1.6,1.6s-1.6-0.7-1.6-1.6c0-3.4,2.8-6.1,6.2-6.1s6.2,2.7,6.2,6.1S108.3,48.2,104.9,48.2z"/>
		</g>
		<g id="XMLID_390_">
			<path class="st0" d="M104.9,57.1c-0.9,0-1.6-0.7-1.6-1.6c0-0.9,0.7-1.6,1.6-1.6c1.6,0,3-1.3,3-2.9s-1.3-2.9-3-2.9s-3,1.3-3,2.9
				c0,0.9-0.7,1.6-1.6,1.6s-1.6-0.7-1.6-1.6c0-3.4,2.8-6.1,6.2-6.1s6.2,2.7,6.2,6.1C111,54.4,108.3,57.1,104.9,57.1z"/>
		</g>
		<g id="XMLID_389_">
			<path class="st0" d="M104.9,66.1c-0.9,0-1.6-0.7-1.6-1.6s0.7-1.6,1.6-1.6c1.6,0,3-1.3,3-2.9c0-1.6-1.3-2.9-3-2.9s-3,1.3-3,2.9
				c0,0.9-0.7,1.6-1.6,1.6s-1.6-0.7-1.6-1.6c0-3.4,2.8-6.1,6.2-6.1s6.2,2.7,6.2,6.1S108.3,66.1,104.9,66.1z"/>
		</g>
		<g id="XMLID_388_">
			<path class="st0" d="M104.9,75.1c-0.9,0-1.6-0.7-1.6-1.6s0.7-1.6,1.6-1.6c1.6,0,3-1.3,3-2.9s-1.3-2.9-3-2.9s-3,1.3-3,2.9
				c0,0.9-0.7,1.6-1.6,1.6s-1.6-0.7-1.6-1.6c0-3.4,2.8-6.1,6.2-6.1s6.2,2.7,6.2,6.1C111,72.4,108.3,75.1,104.9,75.1z"/>
		</g>
		<g id="XMLID_387_">
			<path class="st0" d="M104.9,84.1c-0.9,0-1.6-0.7-1.6-1.6c0-0.9,0.7-1.6,1.6-1.6c1.6,0,3-1.3,3-2.9s-1.3-2.9-3-2.9s-3,1.3-3,2.9
				c0,0.9-0.7,1.6-1.6,1.6s-1.6-0.7-1.6-1.6c0-3.4,2.8-6.1,6.2-6.1s6.2,2.7,6.2,6.1S108.3,84.1,104.9,84.1z"/>
		</g>
		<g id="XMLID_386_">
			<path class="st0" d="M104.9,93.1c-0.9,0-1.6-0.7-1.6-1.6s0.7-1.6,1.6-1.6c1.6,0,3-1.3,3-2.9s-1.3-2.9-3-2.9s-3,1.3-3,2.9
				c0,0.9-0.7,1.6-1.6,1.6s-1.6-0.7-1.6-1.6c0-3.4,2.8-6.1,6.2-6.1s6.2,2.7,6.2,6.1S108.3,93.1,104.9,93.1z"/>
		</g>
		<g id="XMLID_385_">
			<path class="st0" d="M76,93.1c-0.2,0-0.5-0.1-0.7-0.2c-0.8-0.4-1.1-1.3-0.7-2.1L81.8,76c0-0.2-0.1-0.4-0.4-0.4l-7.7-0.8
				c-2.2-0.2-4.1-0.6-5.9-1.2c-5.4-1.7-7.6-4.3-7.6-9.2V1.6c0-0.9,0.7-1.6,1.6-1.6c0.9,0,1.6,0.7,1.6,1.6v62.8
				c0,3.2,0.8,4.8,5.3,6.2c1.6,0.5,3.3,0.8,5.3,1l7.7,0.8c1.2,0.1,2.2,0.8,2.8,1.8c0.5,1,0.6,2.1,0.1,3.1l-7.2,14.9
				C77.2,92.8,76.6,93.1,76,93.1z"/>
		</g>
		<g id="XMLID_384_">
			<path class="st0" d="M76,93.1c-0.2,0-0.4,0-0.6-0.1c-16.7-6.3-15.2-27.9-15.2-28.1c0.1-0.9,0.8-1.5,1.7-1.5
				c0.9,0.1,1.5,0.8,1.5,1.7c0,0.2-1.3,19.4,13.1,24.9c0.8,0.3,1.2,1.2,0.9,2C77.3,92.7,76.7,93.1,76,93.1z"/>
		</g>
	</g>
	<g id="XMLID_378_">
		<g id="XMLID_379_">
			<g id="XMLID_382_">
				<path class="st0" d="M54.2,87.9c-0.2,0-0.5-0.1-0.7-0.2l-19.1-9.6c-0.2-0.1-0.4-0.2-0.5-0.4l-0.1-0.1l-29-35.2
					c-0.6-0.7-0.5-1.7,0.2-2.2l13.3-11c0.3-0.3,0.7-0.4,1.2-0.4c0.4,0,0.8,0.2,1.1,0.6l29,35.2c0.1,0.2,0.3,0.4,0.4,0.7l5.8,20.6
					c0.2,0.6,0,1.3-0.5,1.7C54.9,87.8,54.6,87.9,54.2,87.9z M36.1,75.4l15.6,7.9l-4.8-16.8L19.1,32.7l-10.8,9L36.1,75.4z"/>
			</g>
			<g id="XMLID_381_">
				<path class="st0" d="M5.9,42.9c0,0-0.1,0-0.1,0c-0.4,0-0.8-0.2-1.1-0.6L1,37.9c-2.3-2.7-0.6-7.7,3.8-11.4c2.8-2.3,6-3.5,8.5-3.3
					c1.4,0.1,2.6,0.7,3.3,1.7l3.7,4.5c0.6,0.7,0.5,1.7-0.2,2.2l-13.3,11C6.6,42.8,6.3,42.9,5.9,42.9z M12.7,26.4
					c-1.7,0-3.9,1-5.8,2.6c-3.3,2.7-4.2,5.9-3.4,6.9l2.7,3.2l10.8-9l-2.7-3.2c-0.2-0.3-0.6-0.5-1.2-0.5
					C12.9,26.4,12.8,26.4,12.7,26.4z"/>
			</g>
			<g id="XMLID_380_">
				<path class="st0" d="M34.3,77.2c-0.5,0-0.9-0.2-1.2-0.6c-0.6-0.7-0.5-1.7,0.2-2.2c1.4-1.1,2.8-0.9,3.8-0.7
					c0.8,0.1,0.9,0.1,1.2,0c0.2-0.2,0.3-0.3,0.3-1.1c0-1,0-2.4,1.4-3.6c1.4-1.1,2.8-0.9,3.8-0.7c0.8,0.2,1,0.1,1.2,0
					c0.2-0.2,0.3-0.3,0.3-1.1c0-1,0-2.4,1.4-3.6c0.7-0.6,1.7-0.5,2.2,0.2c0.6,0.7,0.5,1.7-0.2,2.2c-0.2,0.2-0.3,0.3-0.3,1.1
					c0,1,0,2.4-1.4,3.6c-1.4,1.1-2.8,0.9-3.8,0.7c-0.8-0.1-1-0.1-1.2,0c-0.2,0.2-0.3,0.3-0.3,1.1c0,1,0,2.4-1.4,3.6
					c-1.4,1.1-2.8,0.9-3.8,0.7c-0.8-0.1-0.9-0.1-1.2,0C35,77.1,34.6,77.2,34.3,77.2z"/>
			</g>
		</g>
	</g>
	<g id="XMLID_377_">
		<path class="st0" d="M53.1,14.6H37.3c-0.9,0-1.6-0.7-1.6-1.6c0-0.9,0.7-1.6,1.6-1.6h15.8c0.9,0,1.6,0.7,1.6,1.6
			C54.7,13.9,54,14.6,53.1,14.6z"/>
	</g>
	<g id="XMLID_375_">
		<path class="st0" d="M53.1,24.8H37.3c-0.9,0-1.6-0.7-1.6-1.6s0.7-1.6,1.6-1.6h15.8c0.9,0,1.6,0.7,1.6,1.6S54,24.8,53.1,24.8z"/>
	</g>
	<g id="XMLID_374_">
		<path class="st0" d="M53.1,35H37.3c-0.9,0-1.6-0.7-1.6-1.6c0-0.9,0.7-1.6,1.6-1.6h15.8c0.9,0,1.6,0.7,1.6,1.6
			C54.7,34.3,54,35,53.1,35z"/>
	</g>
	<g id="XMLID_373_">
		<path class="st0" d="M53.1,45.2H37.3c-0.9,0-1.6-0.7-1.6-1.6c0-0.9,0.7-1.6,1.6-1.6h15.8c0.9,0,1.6,0.7,1.6,1.6
			C54.7,44.5,54,45.2,53.1,45.2z"/>
	</g>
</g>
</svg>
