<?xml version="1.0" encoding="utf-8"?>
<!-- Generator: Adobe Illustrator 22.0.0, SVG Export Plug-In . SVG Version: 6.00 Build 0)  -->
<svg version="1.1" id="Layer_1" xmlns="http://www.w3.org/2000/svg" xmlns:xlink="http://www.w3.org/1999/xlink" x="0px" y="0px"
	 viewBox="0 0 27.4 56.2" style="enable-background:new 0 0 27.4 56.2;" xml:space="preserve">
<style type="text/css">
	.st0{fill-rule:evenodd;clip-rule:evenodd;fill:#FFFFFF;}
	.st1{fill-rule:evenodd;clip-rule:evenodd;fill:#3A8DDE;}
	.st2{fill-rule:evenodd;clip-rule:evenodd;fill:#FF8300;}
	.st3{fill:#FFFFFF;}
</style>
<g>
	<g id="XMLID_45_">
		<path id="XMLID_52_" class="st0" d="M13.7,40.5c5.7,0,10.4-4.7,10.4-10.4s-4.7-10.4-10.4-10.4C8,19.6,3.3,24.3,3.3,30
			S8,40.5,13.7,40.5L13.7,40.5z"/>
		<path id="XMLID_47_" class="st1" d="M13.7,0c3.8,0,6.8,3.1,6.8,6.8c0,3.8-3.1,6.8-6.8,6.8c-3.8,0-6.8-3-6.8-6.8
			C6.9,3.1,10,0,13.7,0L13.7,0z"/>
		<path class="st2" d="M13.7,56.2c-3-5-13.8-21-13.7-26.6C0.1,11,27.6,11,27.4,29.7C27.4,35.3,16.8,51.3,13.7,56.2L13.7,56.2z"/>
	</g>
	<path class="st3" d="M20.4,23c-2-1.2-4.6-0.6-5.8,1.3l-0.8,1.3l-0.8-1.3c-1.2-2-3.8-2.6-5.8-1.3c-2,1.2-2.6,3.8-1.3,5.8l4.4,7
		c0.6,0.9,1.5,1.5,2.4,1.8c0,0,0,0,0,0c0.1,0,0.2,0,0.3,0.1c0,0,0,0,0,0c0.1,0,0.2,0,0.2,0c0,0,0,0,0.1,0c0.1,0,0.1,0,0.2,0
		c0,0,0,0,0.1,0c0.1,0,0.2,0,0.3,0c0,0,0,0,0,0c0,0,0,0,0,0c1.4,0,2.8-0.7,3.6-2l4.4-7C22.9,26.8,22.3,24.2,20.4,23z"/>
</g>
</svg>
