<?xml version="1.0" encoding="utf-8"?>
<!-- Generator: Adobe Illustrator 22.1.0, SVG Export Plug-In . SVG Version: 6.00 Build 0)  -->
<svg version="1.1" id="Слой_1" xmlns="http://www.w3.org/2000/svg" xmlns:xlink="http://www.w3.org/1999/xlink" x="0px" y="0px"
	 viewBox="0 0 77.9 115.1" style="enable-background:new 0 0 77.9 115.1;" xml:space="preserve">
<style type="text/css">
	.st0{fill:#FFFFFF;}
	.st1{fill:#3A8DDE;}
</style>
<g>
	<g id="XMLID_26_">
		<path id="XMLID_31_" class="st0" d="M38.9,70.3c16.3,0,29.6-13.3,29.6-29.6S55.3,11.1,38.9,11.1c-16.3,0-29.6,13.3-29.6,29.6
			S22.6,70.3,38.9,70.3L38.9,70.3z"/>
		<path class="st0" d="M38.9,115.1C30.4,101-0.1,55.6,0,39.7c0.4-52.9,78.3-52.9,77.9,0C77.8,55.6,47.6,101,38.9,115.1L38.9,115.1z"
			/>
	</g>
	<path class="st1" d="M57.8,20.6c-5.6-3.5-13-1.8-16.5,3.8l-2.4,3.8l-2.4-3.8C33,18.8,25.6,17.1,20,20.6s-7.3,10.9-3.8,16.5L28.8,57
		c1.6,2.6,4.1,4.4,6.9,5.1l0,0c0.2,0.1,0.5,0.1,0.7,0.2h0.1c0.2,0,0.4,0.1,0.6,0.1c0.1,0,0.1,0,0.2,0c0.2,0,0.4,0,0.6,0.1
		c0.1,0,0.1,0,0.2,0c0.3,0,0.5,0,0.8,0l0,0l0,0c4,0,7.9-2,10.2-5.6L61.6,37C65.1,31.5,63.4,24.1,57.8,20.6z"/>
</g>
</svg>
