<?xml version="1.0" encoding="utf-8"?>
<!-- Generator: Adobe Illustrator 22.1.0, SVG Export Plug-In . SVG Version: 6.00 Build 0)  -->
<svg version="1.1" id="Слой_1" xmlns="http://www.w3.org/2000/svg" xmlns:xlink="http://www.w3.org/1999/xlink" x="0px" y="0px"
	 viewBox="0 0 91.2 86.8" style="enable-background:new 0 0 91.2 86.8;" xml:space="preserve">
<style type="text/css">
	.st0{fill:#FFFFFF;}
</style>
<g id="XMLID_195_">
	<g>
		<g id="XMLID_142_">
			<g id="XMLID_159_">
				<g id="XMLID_161_">
					<path class="st0" d="M41.5,67.5c-0.8,0-1.4-0.6-1.4-1.4V54.2c0-0.7-0.2-1.4-0.6-2L39,51.4c-0.2-0.3-0.5-0.9-0.5-1.9
						c0-0.7,0.1-1.5,0.3-2.4c0.3-0.7,0.4-1.2,0.4-1.7l-0.7-12.1c0-0.7-0.5-1.4-1.1-1.7c-0.2-0.1-0.3-0.1-0.5-0.1c-0.1,0-0.2,0-0.3,0
						c-0.3,0-0.4,0.1-0.6,0.1c-0.6,0.3-1.1,0.9-1.1,1.7l-0.7,11.9c0,0.7,0.1,1.3,0.3,1.7c0.3,1,0.4,1.8,0.4,2.6
						c0,1.1-0.4,1.7-0.5,1.9l-0.6,0.8c-0.4,0.6-0.6,1.3-0.6,2v9c0,0.8-0.6,1.4-1.4,1.4c-0.8,0-1.4-0.6-1.4-1.4v-9
						c0-1.3,0.4-2.5,1.1-3.6l0.5-0.7l0,0c0,0,0.1-0.2,0.1-0.5c0-0.5-0.1-1-0.2-1.5c-0.3-0.6-0.5-1.6-0.5-2.5c0-0.1,0-0.3,0-0.4
						l0.7-11.8c0.1-1.8,1.2-3.4,2.8-4c0.4-0.2,0.8-0.3,1.3-0.3c0.2,0,0.4,0,0.6,0c0,0,0.2,0,0.3,0c0.5,0.1,0.9,0.2,1.3,0.3
						c1.6,0.6,2.7,2.2,2.8,4L42,45c0,0.1,0,0.2,0,0.4c0,1-0.2,1.9-0.6,2.7c-0.1,0.5-0.2,1-0.1,1.3c0,0.4,0.1,0.7,0.1,0.7l0.4,0.6
						c0.7,1.1,1.1,2.3,1.1,3.5v11.9C42.9,66.8,42.3,67.5,41.5,67.5z"/>
				</g>
				<g id="XMLID_160_">
					<path class="st0" d="M35.9,50.8h-2.3c-0.8,0-1.4-0.6-1.4-1.4c0-0.8,0.6-1.4,1.4-1.4h2.3c0.8,0,1.4,0.6,1.4,1.4
						C37.3,50.2,36.7,50.8,35.9,50.8z"/>
				</g>
			</g>
			<g id="XMLID_158_">
				<path class="st0" d="M37.8,79.1c-0.2,0-0.3,0-0.5-0.1c-0.7-0.3-1.1-1.1-0.8-1.8c0-0.1,0.5-1.3-0.2-2.4c-0.4-0.6-1.1-0.9-1.8-0.9
					l-7.3,0c-0.8,0-1.4-0.6-1.4-1.4c0-0.8,0.6-1.4,1.4-1.4h0l7.3,0c1.7,0,3.2,0.9,4.1,2.2c1.3,2.1,0.7,4.2,0.4,4.8
					C38.9,78.8,38.3,79.1,37.8,79.1z"/>
			</g>
			<g id="XMLID_157_">
				<path class="st0" d="M1.4,69.3L1.4,69.3c-0.8,0-1.4-0.6-1.4-1.3l0.1-25.6c0-5.3,4.1-9.6,9.3-9.8c0.5,0,0.9,0,1.3,0
					c5.2,0.3,9.3,4.6,9.3,9.9l-0.1,17.4c0,0.8-0.6,1.4-1.4,1.4c0,0,0,0,0,0c-0.8,0-1.4-0.6-1.4-1.4l0.1-17.4c0-3.8-2.9-7-6.7-7.1
					c-0.3,0-0.6,0-0.9,0c-3.8,0.2-6.8,3.3-6.8,7.1L2.7,67.8C2.7,68.6,2.1,69.2,1.4,69.3z"/>
			</g>
			<g id="XMLID_156_">
				<path class="st0" d="M6.6,51.4L6.6,51.4c-0.8,0-1.4-0.6-1.4-1.4l0-7.2c0-1.7,0.8-3.2,2.2-4.1c2.2-1.3,4.4-0.6,4.8-0.4
					c0.7,0.3,1.1,1.1,0.8,1.8c-0.3,0.7-1.1,1.1-1.8,0.8c-0.1,0-1.3-0.5-2.3,0.2c-0.6,0.4-0.9,1-0.9,1.8l0,7.2
					C7.9,50.8,7.3,51.4,6.6,51.4z"/>
			</g>
			<g id="XMLID_155_">
				<path class="st0" d="M18.5,56.5L18.5,56.5L1.4,56.5c-0.8,0-1.4-0.6-1.4-1.4c0-0.8,0.6-1.4,1.4-1.4h0l17.1,0.1
					c0.8,0,1.4,0.6,1.4,1.4C19.9,55.9,19.2,56.5,18.5,56.5z"/>
			</g>
			<g id="XMLID_154_">
				<path class="st0" d="M35.3,86.5C35.3,86.5,35.3,86.5,35.3,86.5L9.8,86.4c-5.2,0-9.6-4.2-9.8-9.3c0-0.3,0-0.6,0-0.9
					c0.2-5.4,4.6-9.6,9.9-9.6c0,0,0,0,0,0l25.5,0.1c5.3,0,9.6,4.1,9.8,9.3c0,0.5,0,0.9,0,1.3C44.9,82.4,40.6,86.5,35.3,86.5z
					 M9.9,69.3c-3.8,0-7,3-7.1,6.8c0,0.4,0,0.7,0,0.9c0.1,3.7,3.3,6.6,7.1,6.7l25.5,0.1c0,0,0,0,0,0c3.8,0,6.9-2.9,7.1-6.7
					c0-0.3,0-0.6,0-0.9c-0.2-3.8-3.3-6.8-7.1-6.8L9.9,69.3L9.9,69.3C9.9,69.3,9.9,69.3,9.9,69.3z"/>
			</g>
			<g id="XMLID_153_">
				<path class="st0" d="M16.9,81.8L16.9,81.8l-7,0c-1.7,0-3.1-0.8-4-2.1c-1.3-2.1-0.6-4.3-0.4-4.7c0.3-0.7,1.1-1.1,1.8-0.8
					c0.7,0.3,1.1,1.1,0.8,1.8c0,0.1-0.4,1.3,0.2,2.2c0.3,0.5,1,0.9,1.7,0.9l7,0c0.8,0,1.4,0.6,1.4,1.4
					C18.3,81.2,17.7,81.8,16.9,81.8z"/>
			</g>
			<g id="XMLID_144_">
				<g id="XMLID_146_">
					<g id="XMLID_147_">
						<g id="XMLID_152_">
							<path class="st0" d="M81.9,86.8C81.9,86.8,81.9,86.8,81.9,86.8L55,86.7c-2.5,0-4.8-1-6.5-2.7c-1.7-1.7-2.7-4.1-2.7-6.5
								l0.2-39c0-5.6,2.2-10.8,6.2-14.8l7.6-7.5c0.3-0.3,0.6-0.4,1-0.4h0l15.9,0.1c0.4,0,0.7,0.1,1,0.4l7.5,7.6
								c3.9,4,6.1,9.2,6.1,14.8l-0.2,39c0,2.5-1,4.8-2.7,6.5C86.6,85.8,84.3,86.8,81.9,86.8z M61.3,18.5l-7.2,7.1
								c-3.4,3.4-5.4,8-5.4,12.8l-0.2,39c0,1.7,0.7,3.4,1.9,4.6c1.2,1.2,2.8,1.9,4.6,1.9L81.9,84c0,0,0,0,0,0c1.7,0,3.3-0.7,4.5-1.9
								c1.2-1.2,1.9-2.8,1.9-4.6l0.2-39c0-4.8-1.9-9.4-5.3-12.9l-7.1-7.2L61.3,18.5z"/>
						</g>
						<g id="XMLID_151_">
							<path class="st0" d="M76.7,18.6C76.7,18.6,76.7,18.6,76.7,18.6c-0.8,0-1.4-0.6-1.4-1.4l0-5.8c0-0.8,0.6-1.4,1.4-1.4h0
								c0.8,0,1.4,0.6,1.4,1.4l0,5.8C78.1,17.9,77.5,18.6,76.7,18.6z"/>
						</g>
						<g id="XMLID_150_">
							<path class="st0" d="M60.7,18.5L60.7,18.5c-0.8,0-1.4-0.6-1.4-1.4l0-5.7c0-0.8,0.6-1.4,1.4-1.4h0c0.8,0,1.4,0.6,1.4,1.4
								l0,5.7C62.1,17.9,61.5,18.5,60.7,18.5z"/>
						</g>
						<g id="XMLID_149_">
							<path class="st0" d="M89.8,46.1L89.8,46.1L47.3,46c-0.8,0-1.4-0.6-1.4-1.4c0-0.8,0.5-1.4,1.4-1.4l42.5,0.2
								c0.8,0,1.4,0.6,1.4,1.4C91.2,45.5,90.6,46.1,89.8,46.1z"/>
						</g>
						<g id="XMLID_148_">
							<path class="st0" d="M89.7,70.4L89.7,70.4l-42.5-0.2c-0.8,0-1.4-0.6-1.4-1.4c0-0.8,0.6-1.5,1.4-1.4l42.5,0.2
								c0.8,0,1.4,0.6,1.4,1.4C91.1,69.8,90.5,70.4,89.7,70.4z"/>
						</g>
					</g>
				</g>
				<g id="XMLID_145_">
					<path class="st0" d="M78.6,12.8H58.3c-0.8,0-1.4-0.6-1.4-1.4V1.4C57,0.6,57.6,0,58.3,0h20.3C79.4,0,80,0.6,80,1.4v10.1
						C80,12.2,79.4,12.8,78.6,12.8z M59.7,10.1h17.5V2.7H59.7V10.1z"/>
				</g>
			</g>
			<g id="XMLID_143_">
				<path class="st0" d="M22.1,86.4c-0.8,0-1.4-0.6-1.4-1.4V68c0-0.8,0.6-1.4,1.4-1.4c0.8,0,1.4,0.6,1.4,1.4v17.1
					C23.5,85.8,22.8,86.4,22.1,86.4z"/>
			</g>
		</g>
	</g>
</g>
</svg>
