<?xml version="1.0" encoding="utf-8"?>
<!-- Generator: Adobe Illustrator 22.0.0, SVG Export Plug-In . SVG Version: 6.00 Build 0)  -->
<svg version="1.1" id="Layer_1" xmlns="http://www.w3.org/2000/svg" xmlns:xlink="http://www.w3.org/1999/xlink" x="0px" y="0px"
	 viewBox="0 0 363.3 90.9" style="enable-background:new 0 0 363.3 90.9;" xml:space="preserve">
<style type="text/css">
	.st0{fill:#FF8300;}
	.st1{fill:#3A8DDE;}
</style>
<g>
	<g>
		<path class="st0" d="M50.8,90.9c-8.3,0-16.3-4.1-21.1-11.6L3.8,38C-3.5,26.4,0,11.1,11.6,3.8C23.2-3.5,38.5,0,45.8,11.6l29.9,47.7
			c7.3,11.6-0.9,11-10.3,23.9C62.5,87.1,55.3,90.9,50.8,90.9z"/>
	</g>
	<g>
		<path class="st1" d="M50.8,90.9c-4.5,0-9.1-1.2-13.2-3.8C26,79.8,22.5,64.5,29.8,52.9l25.9-41.3C63,0,78.4-3.5,90,3.8
			c11.6,7.3,15.1,22.6,7.8,34.2L71.8,79.3C67.1,86.8,59.1,90.9,50.8,90.9z M76.8,8.2c-5.5,0-10.9,2.7-14.1,7.8L36.8,57.3
			c-4.9,7.7-2.5,18,5.2,22.9c3.7,2.3,8.2,3.1,12.5,2.1c4.3-1,8-3.6,10.4-7.3l25.9-41.3c4.9-7.7,2.5-18-5.2-22.9
			C82.9,9.1,79.8,8.2,76.8,8.2z"/>
	</g>
	<path class="st1" d="M57.8,87.7c-3.8,1.8-22-4-24.9-7.8c-2.9-3.7-1.4-25.4-0.5-28.2c0.8-2.7,22.4-25.8,22.4-25.8l24.9,35.7
		C79.7,61.7,61.6,85.9,57.8,87.7z"/>
</g>
<g>
	<path class="st1" d="M145.4,44.4c-5.9,0-10.3-1.2-14.1-5.1l4.9-4.9c2.4,2.4,5.8,3.3,9.3,3.3c4.5,0,6.8-1.7,6.8-4.8
		c0-1.4-0.4-2.5-1.2-3.3c-0.8-0.7-1.6-1.1-3.4-1.4l-4.7-0.7c-3.3-0.5-5.8-1.5-7.5-3.2c-1.8-1.8-2.8-4.3-2.8-7.6
		c0-6.9,5.1-11.7,13.5-11.7c5.3,0,9.2,1.3,12.5,4.5l-4.8,4.7c-2.4-2.3-5.4-2.7-7.9-2.7c-4,0-6,2.2-6,4.9c0,1,0.3,2,1.1,2.8
		c0.8,0.7,2,1.3,3.6,1.5l4.6,0.7c3.5,0.5,5.8,1.5,7.4,3c2.1,2,3,4.8,3,8.2C159.8,40.1,153.5,44.4,145.4,44.4z"/>
	<path class="st1" d="M179.7,44v-2.4c-1.9,1.9-3.7,2.7-7,2.7c-3.2,0-5.5-0.8-7.2-2.5c-1.5-1.6-2.3-3.9-2.3-6.4
		c0-4.5,3.1-8.2,9.7-8.2h6.7v-1.4c0-3.1-1.5-4.5-5.3-4.5c-2.7,0-4,0.7-5.4,2.3l-4.5-4.4c2.8-3,5.5-3.9,10.2-3.9
		c7.9,0,12.1,3.4,12.1,10V44H179.7z M179.6,32.1H174c-2.6,0-4,1.2-4,3.2c0,2,1.3,3.3,4.1,3.3c2,0,3.2-0.2,4.5-1.4
		c0.8-0.7,1-1.8,1-3.6V32.1z"/>
	<path class="st1" d="M201.1,21.9V44H194V21.9h-2.9v-5.4h2.9V13c0-4,2.5-8.1,8.3-8.1h4v6h-2.8c-1.7,0-2.4,0.9-2.4,2.6v3.1h5.2v5.4
		H201.1z"/>
	<path class="st1" d="M215.3,32.1c0,3.6,2.2,6.3,6.2,6.3c3.1,0,4.6-0.9,6.4-2.7l4.3,4.2c-2.9,2.9-5.6,4.5-10.8,4.5
		c-6.7,0-13.1-3-13.1-14.5c0-9.2,5-14.4,12.3-14.4c7.9,0,12.3,5.8,12.3,13.5v3.1H215.3z M225.4,24.2c-0.8-1.7-2.3-2.9-4.7-2.9
		c-2.4,0-4,1.2-4.7,2.9c-0.4,1-0.6,1.8-0.7,3h10.8C226,26,225.8,25.2,225.4,24.2z"/>
	<path class="st1" d="M251.9,44.4c-4.2,0-7.7-1.5-10.4-4.2c-3.9-3.9-3.8-8.7-3.8-15.4s-0.1-11.5,3.8-15.4c2.7-2.7,6.2-4.2,10.4-4.2
		c4.9,0,8,1.7,10.8,4.5l-5,5c-1.7-1.7-3-2.7-5.8-2.7c-2.1,0-3.7,0.8-4.8,2c-1.5,1.6-1.9,3.5-1.9,10.9s0.4,9.3,1.9,10.9
		c1.1,1.2,2.7,2,4.8,2c2.7,0,4.1-1,5.8-2.7l5,5C259.9,42.6,256.8,44.4,251.9,44.4z"/>
	<path class="st1" d="M284.1,44V26.8c0-3.7-2.4-5-4.6-5c-2.2,0-4.6,1.3-4.6,5V44h-7.1V5.4h7.1v13c1.9-2,4.3-2.9,6.8-2.9
		c6.2,0,9.4,4.3,9.4,10.3V44H284.1z"/>
	<path class="st1" d="M312.2,44v-2.4c-1.9,1.9-3.7,2.7-7,2.7c-3.2,0-5.5-0.8-7.2-2.5c-1.5-1.6-2.3-3.9-2.3-6.4
		c0-4.5,3.1-8.2,9.7-8.2h6.7v-1.4c0-3.1-1.5-4.5-5.3-4.5c-2.7,0-4,0.7-5.4,2.3l-4.5-4.4c2.8-3,5.5-3.9,10.2-3.9
		c7.9,0,12.1,3.4,12.1,10V44H312.2z M312,32.1h-5.6c-2.6,0-4,1.2-4,3.2c0,2,1.3,3.3,4.1,3.3c2,0,3.2-0.2,4.5-1.4
		c0.8-0.7,1-1.8,1-3.6V32.1z"/>
	<path class="st1" d="M329.1,12.2c-2.4,0-4.5-2-4.5-4.5s2-4.4,4.5-4.4c2.4,0,4.4,2,4.4,4.4S331.6,12.2,329.1,12.2z M325.6,44V15.7
		h7.1V44H325.6z"/>
	<path class="st1" d="M355.9,44V26.9c0-3.9-2.4-5.2-4.7-5.2c-2.2,0-4.7,1.3-4.7,5.2V44h-7.1V15.7h6.9v2.6c1.8-2,4.5-2.9,7.1-2.9
		c2.8,0,5.1,0.9,6.7,2.5c2.3,2.3,2.9,4.9,2.9,8V44H355.9z"/>
	<path class="st1" d="M145.4,89.4c-5.9,0-10.3-1.2-14.1-5.1l4.9-4.9c2.4,2.4,5.8,3.3,9.3,3.3c4.5,0,6.8-1.7,6.8-4.8
		c0-1.4-0.4-2.5-1.2-3.3c-0.8-0.7-1.6-1.1-3.4-1.4l-4.7-0.7c-3.3-0.5-5.8-1.5-7.5-3.2c-1.8-1.8-2.8-4.3-2.8-7.6
		c0-6.9,5.1-11.7,13.5-11.7c5.3,0,9.2,1.3,12.5,4.5l-4.8,4.7c-2.4-2.3-5.4-2.7-7.9-2.7c-4,0-6,2.2-6,4.9c0,1,0.3,2,1.1,2.8
		c0.8,0.7,2,1.3,3.6,1.5l4.6,0.7c3.5,0.5,5.8,1.5,7.4,3c2.1,2,3,4.8,3,8.2C159.8,85.2,153.5,89.4,145.4,89.4z"/>
	<path class="st1" d="M184.8,86c-1.7,1.8-4.6,3.5-8.8,3.5c-4.2,0-7-1.6-8.7-3.5c-2.6-2.7-3.2-5.9-3.2-11c0-5.1,0.7-8.3,3.2-11
		c1.7-1.8,4.6-3.5,8.7-3.5c4.2,0,7.1,1.6,8.8,3.5c2.6,2.7,3.2,5.9,3.2,11C188,80.1,187.3,83.3,184.8,86z M179.3,68.1
		c-0.8-0.8-1.9-1.2-3.3-1.2s-2.4,0.4-3.3,1.2c-1.5,1.5-1.6,3.9-1.6,6.8c0,2.9,0.2,5.4,1.6,6.9c0.8,0.8,1.8,1.2,3.3,1.2
		s2.5-0.4,3.3-1.2c1.5-1.5,1.6-4,1.6-6.9C180.9,72,180.8,69.6,179.3,68.1z"/>
	<path class="st1" d="M201.6,89.1c-5.8,0-8.3-4.1-8.3-8.1V50.5h7.1v30.1c0,1.7,0.7,2.6,2.5,2.6h2.7v6H201.6z"/>
	<path class="st1" d="M226.5,89.1v-2.6c-1.8,2-4.5,2.9-7.1,2.9c-2.8,0-5.1-0.9-6.7-2.5c-2.3-2.3-2.9-4.9-2.9-8V60.8h7.1v17.1
		c0,3.9,2.4,5.2,4.7,5.2c2.2,0,4.7-1.3,4.7-5.2V60.8h7.1v28.3H226.5z"/>
	<path class="st1" d="M249.1,89.1c-5.8,0-8.2-4.1-8.2-8.1V67h-3v-5.4h3v-8.4h7.1v8.4h5V67h-5v13.6c0,1.6,0.8,2.6,2.4,2.6h2.6v6
		H249.1z"/>
	<path class="st1" d="M261.8,57.3c-2.4,0-4.5-2-4.5-4.5c0-2.4,2-4.4,4.5-4.4c2.4,0,4.4,2,4.4,4.4C266.2,55.3,264.2,57.3,261.8,57.3z
		 M258.3,89.1V60.8h7.1v28.3H258.3z"/>
	<path class="st1" d="M291.7,86c-1.7,1.8-4.6,3.5-8.8,3.5c-4.2,0-7-1.6-8.7-3.5c-2.6-2.7-3.2-5.9-3.2-11c0-5.1,0.7-8.3,3.2-11
		c1.7-1.8,4.6-3.5,8.7-3.5c4.2,0,7.1,1.6,8.8,3.5c2.6,2.7,3.2,5.9,3.2,11C294.9,80.1,294.2,83.3,291.7,86z M286.2,68.1
		c-0.8-0.8-1.9-1.2-3.3-1.2s-2.4,0.4-3.3,1.2c-1.5,1.5-1.6,3.9-1.6,6.8c0,2.9,0.2,5.4,1.6,6.9c0.8,0.8,1.8,1.2,3.3,1.2
		s2.5-0.4,3.3-1.2c1.5-1.5,1.6-4,1.6-6.9C287.8,72,287.6,69.6,286.2,68.1z"/>
	<path class="st1" d="M317,89.1V72c0-3.9-2.4-5.2-4.7-5.2c-2.2,0-4.7,1.3-4.7,5.2v17.1h-7.1V60.8h6.9v2.6c1.8-2,4.5-2.9,7.1-2.9
		c2.8,0,5.1,0.9,6.7,2.5c2.3,2.3,2.9,4.9,2.9,8v18.1H317z"/>
	<path class="st1" d="M339.8,89.4c-4.5,0-8.5-0.5-12.1-4.1l4.6-4.6c2.3,2.3,5.4,2.7,7.5,2.7c2.4,0,5-0.8,5-2.9c0-1.4-0.8-2.4-3-2.6
		l-4.5-0.4c-5.1-0.5-8.3-2.7-8.3-7.9c0-5.9,5.2-9,10.9-9c4.4,0,8.1,0.8,10.8,3.3l-4.3,4.4c-1.6-1.5-4.1-1.9-6.6-1.9
		c-2.8,0-4,1.3-4,2.7c0,1,0.4,2.2,2.9,2.4l4.5,0.4c5.6,0.5,8.4,3.5,8.4,8.3C351.8,86.5,346.5,89.4,339.8,89.4z"/>
</g>
</svg>
