<?xml version="1.0" encoding="utf-8"?>
<!-- Generator: Adobe Illustrator 22.0.0, SVG Export Plug-In . SVG Version: 6.00 Build 0)  -->
<svg version="1.1" id="Layer_1" xmlns="http://www.w3.org/2000/svg" xmlns:xlink="http://www.w3.org/1999/xlink" x="0px" y="0px"
	 viewBox="0 0 131.9 118" style="enable-background:new 0 0 131.9 118;" xml:space="preserve">
<style type="text/css">
	.st0{opacity:0.5;}
	.st1{fill:#FFFFFF;}
</style>
<g>
	<g class="st0">
		<path class="st1" d="M65.9,118c-10.7,0-21.2-5.3-27.3-15.1L4.9,49.4c-9.5-15-4.9-35,10.1-44.4c15-9.5,35-4.9,44.4,10.1l38.8,61.9
			c9.5,15-1.2,14.3-13.4,31C81.2,113,71.8,118,65.9,118z"/>
	</g>
	<g>
		<path class="st1" d="M65.9,118c-5.9,0-11.8-1.6-17.1-4.9c-15-9.5-19.6-29.4-10.1-44.4l33.7-53.6c9.5-15,29.4-19.6,44.4-10.1
			c15,9.5,19.6,29.4,10.1,44.4l-33.7,53.6C87.2,112.7,76.7,118,65.9,118z M99.7,10.7c-7.2,0-14.2,3.6-18.3,10.1L47.8,74.3
			c-6.3,10-3.3,23.4,6.8,29.7c4.8,3,10.6,4,16.2,2.7c5.6-1.3,10.4-4.7,13.4-9.5l33.7-53.6c6.3-10,3.3-23.4-6.8-29.7
			C107.6,11.8,103.6,10.7,99.7,10.7z"/>
	</g>
	<polygon class="st1" points="72,111.6 45.6,104.1 43.5,66.7 71.2,33.7 100.5,77.9 	"/>
</g>
</svg>
