<?xml version="1.0"?>

<!DOCTYPE svg PUBLIC '-//W3C//DTD SVG 1.0//EN' 'http://www.w3.org/TR/2001/REC-SVG-20010904/DTD/svg10.dtd'>
<svg fill-opacity="1" xmlns:xlink="http://www.w3.org/1999/xlink" color-rendering="auto" color-interpolation="auto" text-rendering="auto" stroke="black" stroke-linecap="square" stroke-miterlimit="10" shape-rendering="auto" stroke-opacity="1" fill="black" stroke-dasharray="none" font-weight="normal" stroke-width="1" xmlns="http://www.w3.org/2000/svg" font-family="&apos;Dialog&apos;" font-style="normal" stroke-linejoin="miter" font-size="12" stroke-dashoffset="0" image-rendering="auto">
  <!--Unicode Character 'POCKET CALCULATOR' (U+1F5A9)-->
  <defs id="genericDefs" />
  <g>
    <g>
      <path d="M141.6094 365.0625 L49.2188 365.0625 L49.2188 216.4219 L141.6094 216.4219 L141.6094 365.0625 ZM127.8281 251.5781 L127.8281 237.7969 L63 237.7969 L63 251.5781 L127.8281 251.5781 ZM122.2031 284.4844 L122.2031 273.6562 L108.1406 273.6562 L108.1406 284.4844 L122.2031 284.4844 ZM122.2031 301.3594 L122.2031 290.5312 L108.1406 290.5312 L108.1406 301.3594 L122.2031 301.3594 ZM102.0938 284.4844 L102.0938 273.6562 L88.0312 273.6562 L88.0312 284.4844 L102.0938 284.4844 ZM122.2031 318.2344 L122.2031 307.4062 L108.1406 307.4062 L108.1406 318.2344 L122.2031 318.2344 ZM102.0938 301.3594 L102.0938 290.5312 L88.0312 290.5312 L88.0312 301.3594 L102.0938 301.3594 ZM81.9844 284.4844 L81.9844 273.6562 L67.9219 273.6562 L67.9219 284.4844 L81.9844 284.4844 ZM122.2031 335.1094 L122.2031 324.2812 L108.1406 324.2812 L108.1406 335.1094 L122.2031 335.1094 ZM102.0938 318.2344 L102.0938 307.4062 L88.0312 307.4062 L88.0312 318.2344 L102.0938 318.2344 ZM81.9844 301.3594 L81.9844 290.5312 L67.9219 290.5312 L67.9219 301.3594 L81.9844 301.3594 ZM102.0938 335.1094 L102.0938 324.2812 L88.0312 324.2812 L88.0312 335.1094 L102.0938 335.1094 ZM81.9844 318.2344 L81.9844 307.4062 L67.9219 307.4062 L67.9219 318.2344 L81.9844 318.2344 ZM81.9844 335.1094 L81.9844 324.2812 L67.9219 324.2812 L67.9219 335.1094 L81.9844 335.1094 Z" stroke="none" />
    </g>
  </g>
</svg>
