<?xml version="1.0" encoding="UTF-8"?>
<svg xmlns="http://www.w3.org/2000/svg" width="295" height="71" viewBox="0 0 295 71" fill="none">
  <path d="M120.296 26.48C120.808 28.208 121.352 30.016 121.928 31.904C122.504 33.76 123.096 35.632 123.704 37.52C124.344 39.376 124.968 41.216 125.576 43.04C126.216 44.832 126.824 46.528 127.4 48.128C127.88 46.4 128.344 44.528 128.792 42.512C129.24 40.464 129.688 38.352 130.136 36.176C130.584 33.968 131.016 31.728 131.432 29.456C131.88 27.184 132.296 24.944 132.68 22.736H138.92C137.8 28.752 136.552 34.544 135.176 40.112C133.8 45.648 132.264 50.944 130.568 56H124.808C122.312 49.536 119.896 42.48 117.56 34.832C116.376 38.704 115.176 42.384 113.96 45.872C112.744 49.36 111.528 52.736 110.312 56H104.552C102.824 50.944 101.272 45.648 99.896 40.112C98.552 34.544 97.32 28.752 96.2 22.736H102.68C103.064 24.912 103.464 27.136 103.88 29.408C104.328 31.68 104.776 33.92 105.224 36.128C105.704 38.304 106.184 40.416 106.664 42.464C107.144 44.512 107.624 46.4 108.104 48.128C108.712 46.496 109.32 44.784 109.928 42.992C110.568 41.168 111.192 39.328 111.8 37.472C112.408 35.584 112.984 33.712 113.528 31.856C114.104 30 114.632 28.208 115.112 26.48H120.296ZM144.031 56V22.736H165.391V27.872H150.079V36.08H163.711V41.12H150.079V50.864H166.543V56H144.031ZM193.18 50.768V56H172.156V22.736H178.204V50.768H193.18ZM218.821 50.768V56H197.797V22.736H203.845V50.768H218.821ZM235.503 56.72C233.231 56.72 231.279 56.4 229.647 55.76C228.015 55.088 226.655 54.16 225.567 52.976C224.511 51.792 223.727 50.4 223.215 48.8C222.703 47.2 222.447 45.44 222.447 43.52V22.736H228.543V42.944C228.543 44.448 228.703 45.744 229.023 46.832C229.375 47.888 229.855 48.752 230.463 49.424C231.103 50.096 231.839 50.592 232.671 50.912C233.535 51.232 234.495 51.392 235.551 51.392C236.607 51.392 237.567 51.232 238.431 50.912C239.295 50.592 240.031 50.096 240.639 49.424C241.279 48.752 241.759 47.888 242.079 46.832C242.431 45.744 242.607 44.448 242.607 42.944V22.736H248.703V43.52C248.703 45.44 248.431 47.2 247.887 48.8C247.375 50.4 246.575 51.792 245.487 52.976C244.431 54.16 243.071 55.088 241.407 55.76C239.743 56.4 237.775 56.72 235.503 56.72ZM263.685 22.736C264.389 23.952 265.173 25.44 266.037 27.2C266.901 28.96 267.781 30.816 268.677 32.768C269.573 34.688 270.453 36.656 271.317 38.672C272.213 40.656 273.029 42.496 273.765 44.192C274.501 42.496 275.301 40.656 276.165 38.672C277.029 36.656 277.909 34.688 278.805 32.768C279.701 30.816 280.581 28.96 281.445 27.2C282.309 25.44 283.093 23.952 283.797 22.736H289.269C289.557 25.168 289.829 27.76 290.085 30.512C290.341 33.232 290.565 36.032 290.757 38.912C290.981 41.76 291.173 44.64 291.333 47.552C291.525 50.432 291.685 53.248 291.813 56H285.861C285.733 52.128 285.573 48.144 285.381 44.048C285.221 39.952 284.965 35.984 284.613 32.144C284.261 32.88 283.845 33.76 283.365 34.784C282.885 35.808 282.373 36.928 281.829 38.144C281.285 39.328 280.725 40.56 280.149 41.84C279.605 43.12 279.061 44.368 278.517 45.584C278.005 46.768 277.525 47.888 277.077 48.944C276.629 49.968 276.245 50.848 275.925 51.584H271.413C271.093 50.848 270.709 49.952 270.261 48.896C269.813 47.84 269.317 46.72 268.773 45.536C268.261 44.32 267.717 43.072 267.141 41.792C266.597 40.512 266.053 39.28 265.509 38.096C264.965 36.912 264.453 35.808 263.973 34.784C263.493 33.728 263.077 32.848 262.725 32.144C262.373 35.984 262.101 39.952 261.909 44.048C261.749 48.144 261.605 52.128 261.477 56H255.525C255.653 53.248 255.797 50.4 255.957 47.456C256.149 44.512 256.341 41.6 256.533 38.72C256.757 35.808 256.997 32.992 257.253 30.272C257.509 27.552 257.781 25.04 258.069 22.736H263.685Z" fill="#364351"></path>
  <g clip-path="url(#clip0)">
    <path d="M8.12961 24.5511C9.84998 27.8089 12.3799 30.6637 15.146 33.2162C15.9219 33.9215 17.0688 34.8955 18.2832 35.8694C18.2832 35.8694 18.2832 35.8694 18.2494 35.8694C20.7119 37.8846 23.4106 39.9333 23.4106 39.9333C23.4443 39.9333 23.4443 39.9669 23.4443 39.9669C23.478 39.9669 29.6174 35.6343 32.0462 33.552C34.9135 31.1003 37.5446 28.3463 39.3999 25.1556C42.8407 19.2446 39.5686 10.3108 31.7088 9.50473C28.7403 9.20246 24.9623 10.7474 24.0178 13.2999C23.1744 10.7138 18.6205 9.03453 15.652 9.23604C7.75854 9.70624 4.92499 18.5057 8.12961 24.5511ZM16.5628 23.1069C16.5628 22.9054 16.7315 22.771 16.9001 22.771C17.4736 22.771 18.0471 22.771 18.6205 22.771C19.7674 22.771 20.8806 22.771 22.0275 22.771C22.0275 22.6367 22.0275 22.4688 22.0275 22.3344C22.0275 20.7895 22.0275 19.2446 22.0275 17.6996C22.0275 17.4981 22.1962 17.3638 22.3649 17.3638C23.3431 17.3638 24.2876 17.3638 25.2659 17.3638C25.4683 17.3638 25.6032 17.5317 25.6032 17.6996C25.6032 18.2706 25.6032 18.8415 25.6032 19.4125C25.6032 20.5544 25.6032 21.6627 25.6032 22.8046C25.7381 22.8046 25.9068 22.8046 26.0417 22.8046C27.5934 22.8046 29.1451 22.8046 30.6969 22.8046C30.8992 22.8046 31.0342 22.9726 31.0342 23.1405C31.0342 24.1145 31.0342 25.0549 31.0342 26.0289C31.0342 26.2304 30.8655 26.3647 30.6969 26.3647C30.1234 26.3647 29.5499 26.3647 28.9765 26.3647C27.8296 26.3647 26.7164 26.3647 25.5695 26.3647C25.5695 26.4991 25.5695 26.667 25.5695 26.8013C25.5695 28.3463 25.5695 29.8912 25.5695 31.4361C25.5695 31.5369 25.5357 31.6377 25.4683 31.6712C25.4008 31.7384 25.3333 31.772 25.2321 31.772C24.2539 31.772 23.3094 31.772 22.3311 31.772C22.1287 31.772 21.9938 31.6041 21.9938 31.4361C21.9938 30.8652 21.9938 30.2942 21.9938 29.7233C21.9938 28.5814 21.9938 27.473 21.9938 26.3311C21.8589 26.3311 21.6902 26.3311 21.5553 26.3311C20.0036 26.3311 18.4518 26.3311 16.9001 26.3311C16.7989 26.3311 16.6977 26.2975 16.664 26.2304C16.5965 26.1632 16.5628 26.096 16.5628 25.9953C16.5628 25.0549 16.5628 24.0809 16.5628 23.1069Z" fill="url(#paint0_linear)"></path>
    <path d="M67.9716 3.29139C63.2827 3.05629 59.3023 6.64995 59.0661 11.3184C58.8637 15.5837 61.866 19.2781 65.9814 20.0506L65.0706 37.7502C64.4971 37.9518 64.0923 38.3884 64.0586 39.0265C64.0249 40.0341 63.9237 41.0752 63.8225 42.0828C63.6875 43.1911 63.5526 44.2659 63.3502 45.3742C63.2827 45.6765 63.249 46.0123 63.1815 46.3146C63.1815 46.3482 63.1815 46.3818 63.1815 46.3818V46.4153C63.1478 46.5833 63.1141 46.7848 63.0803 46.9527C62.9117 47.658 62.7767 48.3297 62.5743 49.035C61.7648 52.0577 60.719 55.0133 59.1336 57.8344C59.0661 57.9688 58.9649 58.1031 58.8975 58.2711C58.9312 58.2039 58.7625 58.5062 58.6951 58.6069C58.4589 58.9764 58.2228 59.3458 57.9867 59.7152C57.5144 60.387 57.0422 61.0587 56.4687 61.6968C56.1988 61.9991 55.9627 62.3013 55.6929 62.57C55.5579 62.7044 55.423 62.8387 55.2881 62.973C55.1869 63.0738 55.1194 63.141 55.0182 63.2417C54.9845 63.2753 54.917 63.3425 54.8833 63.3761C54.3098 63.9134 53.6689 64.4172 53.028 64.8874C52.6906 65.1225 52.3533 65.3576 52.016 65.5591C51.8473 65.6599 51.6786 65.7607 51.51 65.8614C51.9485 65.5927 51.2401 65.9958 51.1052 66.0629C50.3293 66.466 49.486 66.8018 48.609 67.1041C48.5078 67.1377 48.4403 67.1713 48.3391 67.2048H48.3054C48.103 67.272 47.9006 67.3056 47.6982 67.3728C47.1922 67.5071 46.7199 67.6079 46.2139 67.675C45.7417 67.7422 45.2694 67.8094 44.7972 67.843C44.7634 67.843 44.7297 67.843 44.6622 67.843C44.696 67.843 44.7297 67.843 44.7972 67.843C44.7297 67.843 44.6622 67.843 44.5948 67.843C44.561 67.843 44.561 67.843 44.561 67.843C44.5273 67.843 44.5273 67.843 44.4936 67.843C44.19 67.843 43.8526 67.8765 43.549 67.8765C42.4359 67.9101 41.3227 67.8094 40.2095 67.7086C40.2095 67.7086 40.2095 67.7086 40.1758 67.7086C40.0746 67.7086 39.9734 67.675 39.8722 67.675C39.636 67.6414 39.3999 67.6079 39.1638 67.5743C38.6241 67.4735 38.0843 67.3392 37.5446 67.2048C37.1061 67.1041 36.7013 66.9697 36.2965 66.8354H36.2628C36.2628 66.8354 36.2628 66.8354 36.229 66.8354C36.1278 66.8018 36.0604 66.7682 35.9592 66.7346C35.6893 66.6339 35.4532 66.5331 35.1833 66.4324C34.8123 66.2644 34.4412 66.0965 34.0701 65.9286C33.8677 65.8278 33.6653 65.7271 33.4967 65.6263C33.3955 65.5591 32.8558 65.2569 32.9907 65.324C32.316 64.8874 31.6751 64.4172 31.0679 63.9134C30.798 63.6783 30.4945 63.4097 30.2583 63.1746C30.1909 63.1074 29.8198 62.7379 29.9547 62.8723C29.8198 62.7379 29.6849 62.57 29.5499 62.4357C28.4368 61.193 27.5597 59.8496 26.8176 58.4726C26.8176 58.439 26.7838 58.4054 26.7838 58.3718C26.7501 58.3382 26.7501 58.2711 26.7164 58.2711C26.6489 58.1031 26.5477 57.9352 26.4802 57.8009C26.3116 57.4314 26.1429 57.0284 25.9743 56.659C25.6707 55.9201 25.4008 55.1812 25.1309 54.4423C25.0635 54.2744 25.0297 54.1064 24.9623 53.9385C28.6054 53.6698 32.1136 52.2592 35.0484 50.0762C43.8526 43.4262 47.5633 31.8056 47.597 21.1589C47.6307 15.2479 47.597 9.30322 47.597 3.39215C47.597 2.01514 46.5513 1.30984 45.4718 1.24267C45.4381 1.24267 45.4044 1.24267 45.3706 1.24267C43.9538 1.24267 42.5708 1.24267 41.154 1.24267V0.134343H35.4532C34.8797 0.134343 34.4075 0.604541 34.4075 1.1755V3.25781C34.4075 3.82876 34.8797 4.29896 35.4532 4.29896H41.154V3.32498C41.8287 3.32498 42.4696 3.32498 43.1443 3.32498C43.1443 3.35856 43.1443 3.39215 43.1443 3.42573C43.1443 8.83302 43.1443 14.2403 43.1443 19.6476C43.1443 28.1783 41.3901 37.1457 35.4869 43.6949C32.7883 46.684 29.2463 49.1022 25.1309 49.5052C21.1167 49.8747 17.2037 48.3297 14.2015 45.7436C7.18509 39.6646 4.48646 29.8912 4.48646 20.9238C4.48646 15.1135 4.48646 9.26963 4.48646 3.45932C4.48646 3.42573 4.48646 3.39215 4.48646 3.35856C5.05992 3.35856 5.66711 3.35856 6.24057 3.35856V4.33255H11.9414C12.5149 4.33255 12.9871 3.86235 12.9871 3.29139V1.20908C12.9534 0.470199 12.4811 0 11.9414 0H6.24057V1.10833C4.82379 1.10833 3.44075 1.10833 2.02397 1.10833C1.92277 1.10833 1.82157 1.14191 1.75411 1.1755C0.809587 1.37701 0 2.08231 0 3.29139C0 8.93378 0 14.5762 0 20.2521C0 29.9584 2.63116 40.1012 9.47892 47.2886C12.5149 50.4792 16.3941 52.7966 20.7119 53.6027C21.9938 58.2711 24.2539 62.8387 28.538 66.298C34.7111 71.3023 45.4044 72.6121 52.9605 68.8505C60.1793 65.2905 63.6875 58.6405 65.7115 52.4943C66.6223 49.6731 67.2632 46.8184 67.7017 43.93C67.9379 42.4186 68.1403 40.8737 68.174 39.3624C68.174 39.2952 68.174 39.228 68.174 39.1608C68.174 38.5899 67.8367 38.1533 67.3644 37.9182L68.2752 20.2185C72.4581 19.8827 75.8313 16.4905 76.0337 12.2252C76.2361 7.48959 72.6267 3.52649 67.9716 3.29139ZM73.3688 12.0237C73.2339 14.8448 71.075 17.0951 68.3764 17.4645L68.4776 15.2815L66.2175 15.1807L66.1163 17.3638C63.4851 16.6921 61.5624 14.2403 61.731 11.4527C61.8997 8.26206 64.632 5.77673 67.8367 5.94466C71.0413 6.11258 73.5038 8.83302 73.3688 12.0237Z" fill="url(#paint1_linear)"></path>
    <path d="M67.5668 9.94134C66.4536 9.87417 65.5428 10.7138 65.4754 11.8221C65.4079 12.9305 66.2512 13.8373 67.3644 13.9044C68.4776 13.9716 69.3884 13.132 69.4558 12.0236C69.5233 10.9489 68.68 10.0085 67.5668 9.94134Z" fill="url(#paint2_linear)"></path>
  </g>
  <defs>
    <linearGradient id="paint0_linear" x1="23.7979" y1="9.2197" x2="23.7979" y2="39.9669" gradientUnits="userSpaceOnUse">
      <stop stop-color="#3BC9CF"></stop>
      <stop offset="1" stop-color="#3896D0"></stop>
    </linearGradient>
    <linearGradient id="paint1_linear" x1="38.0209" y1="0" x2="38.0209" y2="71.0192" gradientUnits="userSpaceOnUse">
      <stop stop-color="#3BC9CF"></stop>
      <stop offset="1" stop-color="#3896D0"></stop>
    </linearGradient>
    <linearGradient id="paint2_linear" x1="67.4656" y1="9.93758" x2="67.4656" y2="13.9082" gradientUnits="userSpaceOnUse">
      <stop stop-color="#3BC9CF"></stop>
      <stop offset="1" stop-color="#3896D0"></stop>
    </linearGradient>
    <clipPath id="clip0">
      <rect width="76" height="71" fill="white"></rect>
    </clipPath>
  </defs>
</svg>
